<svg width="64" height="64" viewBox="0 0 64 64" fill="none" xmlns="http://www.w3.org/2000/svg">
<g filter="url(#filter0_d_2625_17891)">
<path d="M60 28C60 43.464 47.464 56 32 56C16.536 56 4 43.464 4 28C4 12.536 16.536 0 32 0C47.464 0 60 12.536 60 28Z" fill="#F9E000"/>
<path d="M31.995 16C24.2678 16 18 21.0028 18 27.1882C18 31.2107 20.659 34.7379 24.6376 36.7088C24.3477 37.8104 23.578 40.711 23.4281 41.3276C23.2381 42.0957 23.708 42.0856 24.0179 41.8834C24.2578 41.7217 27.8565 39.2456 29.4059 38.1844C30.2456 38.3157 31.1153 38.3764 32.005 38.3764C39.7322 38.3764 46 33.3735 46 27.1882C46 21.0028 39.7222 16 31.995 16ZM25.1674 30.0686C25.1674 30.7458 23.668 30.7357 23.668 30.0686C23.668 29.1388 23.668 25.1365 23.668 25.1365H22.2285C21.3888 25.1365 21.3788 23.7418 22.2285 23.7418C22.2285 23.7418 25.5973 23.7721 26.6069 23.7721C27.5066 23.7721 27.4966 25.1972 26.6069 25.1972C25.6573 25.1972 25.1774 25.1972 25.1774 25.1972V30.0888L25.1674 30.0686ZM30.6655 30.2404C30.3156 29.3106 30.4056 29.2601 30.4056 29.2601H27.7665L27.4766 30.2809C27.1667 30.9984 25.8472 30.4122 26.1471 29.6947C26.5769 28.7042 27.8565 24.9748 28.2064 24.1865C28.3463 23.8732 28.6762 23.7519 29.0161 23.7519C29.4259 23.7519 29.8458 23.9338 29.9657 24.1865C30.2256 24.7424 31.6251 28.6234 32.025 29.7048C32.3049 30.4628 30.9354 30.9883 30.6555 30.2303L30.6655 30.2404ZM36.0136 30.5841C35.3338 30.5841 33.8144 30.5841 33.1246 30.5841C32.4348 30.5841 32.5548 29.7755 32.5548 29.7755C32.5548 29.7755 32.5548 25.6924 32.5548 24.429C32.5548 23.9843 32.9447 23.762 33.3345 23.762C33.7244 23.762 34.1142 23.9843 34.1142 24.429C34.1142 25.3488 34.1142 29.1186 34.1142 29.1186C34.1142 29.1186 35.3538 29.1186 36.0236 29.1186C36.6933 29.1186 36.7033 30.574 36.0236 30.574L36.0136 30.5841ZM40.6619 30.4729L38.7626 27.8552L38.3327 28.209C38.3327 28.209 38.3327 29.5026 38.3327 30.1899C38.3327 30.7761 36.8533 30.7761 36.8533 30.1899C36.8533 29.8159 36.8833 24.7929 36.8733 24.237C36.8733 23.9338 37.2531 23.7721 37.633 23.7721C37.9929 23.7721 38.3327 23.9136 38.3427 24.1966C38.3627 24.9546 38.3427 26.3089 38.3427 26.3089C38.3427 26.3089 40.482 24.1359 40.7919 23.8327C41.1017 23.5194 42.0814 24.5099 41.7715 24.8232C41.2317 25.369 39.8622 26.8648 39.8622 26.8648L41.8815 29.5532C42.2613 30.0686 41.0618 30.9883 40.6719 30.483L40.6619 30.4729Z" fill="#381E1F"/>
<path d="M28.2563 27.926H29.9257L29.126 25.3892L28.2563 27.926Z" fill="#381E1F"/>
<path d="M26.6069 23.762C25.5973 23.762 22.2285 23.7317 22.2285 23.7317C21.3788 23.7317 21.3888 25.1264 22.2285 25.1264H23.668C23.668 25.1264 23.668 29.1287 23.668 30.0585C23.668 30.7357 25.1674 30.7458 25.1674 30.0585V25.1668C25.1674 25.1668 25.6573 25.1668 26.6069 25.1668C27.5066 25.1668 27.5066 23.7418 26.6069 23.7418V23.762Z" fill="#F9E000"/>
<path d="M29.9857 24.1966C29.8658 23.9439 29.4459 23.762 29.0361 23.762C28.6962 23.762 28.3663 23.8833 28.2263 24.1966C27.8765 24.9849 26.5869 28.7143 26.1671 29.7048C25.8572 30.4224 27.1867 30.9984 27.4966 30.291L27.7865 29.2702H30.4256C30.4256 29.2702 30.3356 29.3106 30.6855 30.2505C30.9654 31.0085 32.3349 30.483 32.055 29.725C31.6551 28.6436 30.2456 24.7525 29.9957 24.2067L29.9857 24.1966ZM28.2563 27.926L29.126 25.3892L29.9257 27.926H28.2563Z" fill="#F9E000"/>
<path d="M36.0136 29.1287C35.3338 29.1287 34.1042 29.1287 34.1042 29.1287C34.1042 29.1287 34.1042 25.3488 34.1042 24.4391C34.1042 23.9945 33.7144 23.7721 33.3245 23.7721C32.9347 23.7721 32.5448 23.9945 32.5448 24.4391C32.5448 25.7025 32.5448 29.7856 32.5448 29.7856C32.5448 29.7856 32.4248 30.5942 33.1146 30.5942C33.8044 30.5942 35.3338 30.5942 36.0036 30.5942C36.6733 30.5942 36.6733 29.1388 36.0036 29.1388L36.0136 29.1287Z" fill="#F9E000"/>
<path d="M39.8622 26.8547C39.8622 26.8547 41.2317 25.3589 41.7715 24.8131C42.0814 24.4998 41.1117 23.4992 40.7919 23.8226C40.482 24.1258 38.3427 26.2988 38.3427 26.2988C38.3427 26.2988 38.3627 24.9344 38.3427 24.1865C38.3427 23.9035 37.9929 23.762 37.633 23.762C37.2531 23.762 36.8633 23.9237 36.8733 24.2269C36.8933 24.7828 36.8533 29.8058 36.8533 30.1798C36.8533 30.766 38.3327 30.766 38.3327 30.1798C38.3327 29.5026 38.3327 28.1989 38.3327 28.1989L38.7626 27.8451L40.6619 30.4628C41.0418 30.9782 42.2513 30.0484 41.8715 29.533L39.8522 26.8446L39.8622 26.8547Z" fill="#F9E000"/>
</g>
<defs>
<filter id="filter0_d_2625_17891" x="0" y="0" width="64" height="64" filterUnits="userSpaceOnUse" color-interpolation-filters="sRGB">
<feFlood flood-opacity="0" result="BackgroundImageFix"/>
<feColorMatrix in="SourceAlpha" type="matrix" values="0 0 0 0 0 0 0 0 0 0 0 0 0 0 0 0 0 0 127 0" result="hardAlpha"/>
<feOffset dy="4"/>
<feGaussianBlur stdDeviation="2"/>
<feComposite in2="hardAlpha" operator="out"/>
<feColorMatrix type="matrix" values="0 0 0 0 0 0 0 0 0 0 0 0 0 0 0 0 0 0 0.05 0"/>
<feBlend mode="normal" in2="BackgroundImageFix" result="effect1_dropShadow_2625_17891"/>
<feBlend mode="normal" in="SourceGraphic" in2="effect1_dropShadow_2625_17891" result="shape"/>
</filter>
</defs>
</svg>
