<svg width="148" height="64" viewBox="0 0 148 64" fill="none" xmlns="http://www.w3.org/2000/svg">
<g filter="url(#filter0_d_2625_17890)">
<path d="M4 28C4 12.536 16.536 0 32 0H116C131.464 0 144 12.536 144 28C144 43.464 131.464 56 116 56H32C16.536 56 4 43.464 4 28Z" fill="#F9E000"/>
<path d="M40.995 16C33.2678 16 27 21.0028 27 27.1882C27 31.2107 29.659 34.7379 33.6376 36.7088C33.3477 37.8104 32.578 40.711 32.4281 41.3276C32.2381 42.0957 32.708 42.0856 33.0179 41.8834C33.2578 41.7217 36.8565 39.2456 38.4059 38.1844C39.2456 38.3157 40.1153 38.3764 41.005 38.3764C48.7322 38.3764 55 33.3735 55 27.1882C55 21.0028 48.7222 16 40.995 16ZM34.1674 30.0686C34.1674 30.7458 32.668 30.7357 32.668 30.0686C32.668 29.1388 32.668 25.1365 32.668 25.1365H31.2285C30.3888 25.1365 30.3788 23.7418 31.2285 23.7418C31.2285 23.7418 34.5973 23.7721 35.6069 23.7721C36.5066 23.7721 36.4966 25.1972 35.6069 25.1972C34.6573 25.1972 34.1774 25.1972 34.1774 25.1972V30.0888L34.1674 30.0686ZM39.6655 30.2404C39.3156 29.3106 39.4056 29.2601 39.4056 29.2601H36.7665L36.4766 30.2809C36.1667 30.9984 34.8472 30.4122 35.1471 29.6947C35.5769 28.7042 36.8565 24.9748 37.2064 24.1865C37.3463 23.8732 37.6762 23.7519 38.0161 23.7519C38.4259 23.7519 38.8458 23.9338 38.9657 24.1865C39.2256 24.7424 40.6251 28.6234 41.025 29.7048C41.3049 30.4628 39.9354 30.9883 39.6555 30.2303L39.6655 30.2404ZM45.0136 30.5841C44.3338 30.5841 42.8144 30.5841 42.1246 30.5841C41.4348 30.5841 41.5548 29.7755 41.5548 29.7755C41.5548 29.7755 41.5548 25.6924 41.5548 24.429C41.5548 23.9843 41.9447 23.762 42.3345 23.762C42.7244 23.762 43.1142 23.9843 43.1142 24.429C43.1142 25.3488 43.1142 29.1186 43.1142 29.1186C43.1142 29.1186 44.3538 29.1186 45.0236 29.1186C45.6933 29.1186 45.7033 30.574 45.0236 30.574L45.0136 30.5841ZM49.6619 30.4729L47.7626 27.8552L47.3327 28.209C47.3327 28.209 47.3327 29.5026 47.3327 30.1899C47.3327 30.7761 45.8533 30.7761 45.8533 30.1899C45.8533 29.8159 45.8833 24.7929 45.8733 24.237C45.8733 23.9338 46.2531 23.7721 46.633 23.7721C46.9929 23.7721 47.3327 23.9136 47.3427 24.1966C47.3627 24.9546 47.3427 26.3089 47.3427 26.3089C47.3427 26.3089 49.482 24.1359 49.7919 23.8327C50.1017 23.5194 51.0814 24.5099 50.7715 24.8232C50.2317 25.369 48.8622 26.8648 48.8622 26.8648L50.8815 29.5532C51.2613 30.0686 50.0618 30.9883 49.6719 30.483L49.6619 30.4729Z" fill="#381E1F"/>
<path d="M37.2563 27.926H38.9257L38.126 25.3892L37.2563 27.926Z" fill="#381E1F"/>
<path d="M35.6069 23.762C34.5973 23.762 31.2285 23.7317 31.2285 23.7317C30.3788 23.7317 30.3888 25.1264 31.2285 25.1264H32.668C32.668 25.1264 32.668 29.1287 32.668 30.0585C32.668 30.7357 34.1674 30.7458 34.1674 30.0585V25.1668C34.1674 25.1668 34.6573 25.1668 35.6069 25.1668C36.5066 25.1668 36.5066 23.7418 35.6069 23.7418V23.762Z" fill="#F9E000"/>
<path d="M38.9857 24.1966C38.8658 23.9439 38.4459 23.762 38.0361 23.762C37.6962 23.762 37.3663 23.8833 37.2263 24.1966C36.8765 24.9849 35.5869 28.7143 35.1671 29.7048C34.8572 30.4224 36.1867 30.9984 36.4966 30.291L36.7865 29.2702H39.4256C39.4256 29.2702 39.3356 29.3106 39.6855 30.2505C39.9654 31.0085 41.3349 30.483 41.055 29.725C40.6551 28.6436 39.2456 24.7525 38.9957 24.2067L38.9857 24.1966ZM37.2563 27.926L38.126 25.3892L38.9257 27.926H37.2563Z" fill="#F9E000"/>
<path d="M45.0136 29.1287C44.3338 29.1287 43.1042 29.1287 43.1042 29.1287C43.1042 29.1287 43.1042 25.3488 43.1042 24.4391C43.1042 23.9945 42.7144 23.7721 42.3245 23.7721C41.9347 23.7721 41.5448 23.9945 41.5448 24.4391C41.5448 25.7025 41.5448 29.7856 41.5448 29.7856C41.5448 29.7856 41.4248 30.5942 42.1146 30.5942C42.8044 30.5942 44.3338 30.5942 45.0036 30.5942C45.6733 30.5942 45.6733 29.1388 45.0036 29.1388L45.0136 29.1287Z" fill="#F9E000"/>
<path d="M48.8622 26.8547C48.8622 26.8547 50.2317 25.3589 50.7715 24.8131C51.0814 24.4998 50.1117 23.4992 49.7919 23.8226C49.482 24.1258 47.3427 26.2988 47.3427 26.2988C47.3427 26.2988 47.3627 24.9344 47.3427 24.1865C47.3427 23.9035 46.9929 23.762 46.633 23.762C46.2531 23.762 45.8633 23.9237 45.8733 24.2269C45.8933 24.7828 45.8533 29.8058 45.8533 30.1798C45.8533 30.766 47.3327 30.766 47.3327 30.1798C47.3327 29.5026 47.3327 28.1989 47.3327 28.1989L47.7626 27.8451L49.6619 30.4628C50.0418 30.9782 51.2513 30.0484 50.8715 29.533L48.8522 26.8446L48.8622 26.8547Z" fill="#F9E000"/>
<path d="M81.3477 28.8457H73.6562V27.2129H79.3711V25.3867H68.2637V23.9473H78.748V22.1641H68.2637V20.832H79.2207V18.9629H65.8789V27.2129H71.2715V28.8457H63.6016V30.7363H81.3477V28.8457ZM65.5996 34.002H76.707V37.9121H79.1133V32.1113H65.5996V34.002Z" fill="black"/>
<path d="M81.3477 28.8457H73.6562V27.2129H79.3711V25.3867H68.2637V23.9473H78.748V22.1641H68.2637V20.832H79.2207V18.9629H65.8789V27.2129H71.2715V28.8457H63.6016V30.7363H81.3477V28.8457ZM65.5996 34.002H76.707V37.9121H79.1133V32.1113H65.5996V34.002Z" fill="black" fill-opacity="0.2"/>
<path d="M89.5332 21.584V19.5215H87.1484V21.3691C87.1377 24.1406 85.5693 26.7295 82.4434 27.8145L83.7324 29.6836C85.9668 28.8994 87.5352 27.2773 88.373 25.2148C89.2217 27.0195 90.7256 28.4375 92.8203 29.1465L94.1094 27.2773C91.1123 26.332 89.5332 24.0225 89.5332 21.584ZM85.0859 34.1953C85.0859 36.5479 87.6104 37.8906 91.6602 37.8906C95.6777 37.8906 98.1592 36.5479 98.1699 34.1953C98.1592 31.8965 95.6777 30.5322 91.6602 30.543C87.6104 30.5322 85.0859 31.8965 85.0859 34.1953ZM87.4707 34.1953C87.4707 33.0566 88.9961 32.4121 91.6602 32.4121C94.3135 32.4121 95.8066 33.0566 95.8066 34.1953C95.8066 35.3984 94.3135 36 91.6602 36C88.9961 36 87.4707 35.3984 87.4707 34.1953ZM95.5918 30.1133H97.9766V25.1934H100.684V23.2168H97.9766V18.4902H95.5918V30.1133Z" fill="black"/>
<path d="M89.5332 21.584V19.5215H87.1484V21.3691C87.1377 24.1406 85.5693 26.7295 82.4434 27.8145L83.7324 29.6836C85.9668 28.8994 87.5352 27.2773 88.373 25.2148C89.2217 27.0195 90.7256 28.4375 92.8203 29.1465L94.1094 27.2773C91.1123 26.332 89.5332 24.0225 89.5332 21.584ZM85.0859 34.1953C85.0859 36.5479 87.6104 37.8906 91.6602 37.8906C95.6777 37.8906 98.1592 36.5479 98.1699 34.1953C98.1592 31.8965 95.6777 30.5322 91.6602 30.543C87.6104 30.5322 85.0859 31.8965 85.0859 34.1953ZM87.4707 34.1953C87.4707 33.0566 88.9961 32.4121 91.6602 32.4121C94.3135 32.4121 95.8066 33.0566 95.8066 34.1953C95.8066 35.3984 94.3135 36 91.6602 36C88.9961 36 87.4707 35.3984 87.4707 34.1953ZM95.5918 30.1133H97.9766V25.1934H100.684V23.2168H97.9766V18.4902H95.5918V30.1133Z" fill="black" fill-opacity="0.2"/>
<path d="M116.99 18.4902H114.605V29.4258H116.99V24.9785H119.697V23.002H116.99V18.4902ZM102.488 28.5664H104.057C108.3 28.5664 110.556 28.4805 113.102 27.9219L112.844 26.0312C110.534 26.4932 108.504 26.6221 104.852 26.6328V21.6699H111.125V19.7363H102.488V28.5664ZM104.443 37.6543H116.99V30.3066H104.443V37.6543ZM106.807 35.7637V32.2188H114.627V35.7637H106.807Z" fill="black"/>
<path d="M116.99 18.4902H114.605V29.4258H116.99V24.9785H119.697V23.002H116.99V18.4902ZM102.488 28.5664H104.057C108.3 28.5664 110.556 28.4805 113.102 27.9219L112.844 26.0312C110.534 26.4932 108.504 26.6221 104.852 26.6328V21.6699H111.125V19.7363H102.488V28.5664ZM104.443 37.6543H116.99V30.3066H104.443V37.6543ZM106.807 35.7637V32.2188H114.627V35.7637H106.807Z" fill="black" fill-opacity="0.2"/>
</g>
<defs>
<filter id="filter0_d_2625_17890" x="0" y="0" width="148" height="64" filterUnits="userSpaceOnUse" color-interpolation-filters="sRGB">
<feFlood flood-opacity="0" result="BackgroundImageFix"/>
<feColorMatrix in="SourceAlpha" type="matrix" values="0 0 0 0 0 0 0 0 0 0 0 0 0 0 0 0 0 0 127 0" result="hardAlpha"/>
<feOffset dy="4"/>
<feGaussianBlur stdDeviation="2"/>
<feComposite in2="hardAlpha" operator="out"/>
<feColorMatrix type="matrix" values="0 0 0 0 0 0 0 0 0 0 0 0 0 0 0 0 0 0 0.05 0"/>
<feBlend mode="normal" in2="BackgroundImageFix" result="effect1_dropShadow_2625_17890"/>
<feBlend mode="normal" in="SourceGraphic" in2="effect1_dropShadow_2625_17890" result="shape"/>
</filter>
</defs>
</svg>
