<svg width="148" height="48" viewBox="0 0 148 48" fill="none" xmlns="http://www.w3.org/2000/svg">
<path d="M0 24C0 10.7452 10.7452 0 24 0H124C137.255 0 148 10.7452 148 24C148 37.2548 137.255 48 124 48H24C10.7452 48 0 37.2548 0 24Z" fill="#4286F4"/>
<path d="M34.3984 17.2656H32.7266V22.8281H31.1641V17.5312H29.5391V30.6719H31.1641V24.25H32.7266V31.3906H34.3984V17.2656ZM22.8828 27.875H23.8203C25.3125 27.875 26.9297 27.7734 28.8359 27.4375L28.6641 25.9219C27.1797 26.2109 25.8516 26.3203 24.6328 26.3438V18.8906H22.8828V27.875Z" fill="white"/>
<path d="M48.3828 18.75H45.4609V17.2969H43.7266V18.75H40.8047V20.1094H43.7109C43.6875 21.4062 42.5625 22.5938 40.4453 23.0156L41.1797 24.3594C42.8359 24.0078 44.0078 23.1719 44.625 22.0625C45.25 23.0781 46.3906 23.8359 48.0078 24.1719L48.6953 22.8281C46.6094 22.4219 45.4922 21.3359 45.4609 20.1094H48.3828V18.75ZM39.9141 25.0938L40.1328 26.5312C41.2109 26.5312 42.4375 26.5234 43.7266 26.4766V30.9531H45.4766V26.3828C46.7109 26.2969 47.9766 26.1641 49.1953 25.9531L49.0703 24.7031C46.0547 25.0781 42.5469 25.1016 39.9141 25.0938ZM49.9922 31.375H51.7109V17.2812H49.9922V31.375Z" fill="white"/>
<path d="M66.7891 19.4688H64.8672V17.2656H63.1328V26.2812H64.8672V23.9219H66.7891V22.5H64.8672V20.8906H66.7891V19.4688ZM53.7422 20.0625H62.1172V18.7031H58.8047V17.1719H57.0703V18.7031H53.7422V20.0625ZM54.4609 23.1562C54.4609 24.6719 55.8672 25.6719 57.9297 25.6719C59.9688 25.6719 61.375 24.6719 61.3828 23.1562C61.375 21.6406 59.9688 20.6328 57.9297 20.625C55.8672 20.6328 54.4609 21.6406 54.4609 23.1562ZM55.5859 28.8906C55.5703 30.4453 57.375 31.375 60.3047 31.375C63.2031 31.375 65.0234 30.4453 65.0234 28.8906C65.0234 27.3203 63.2031 26.3984 60.3047 26.4062C57.375 26.3984 55.5703 27.3203 55.5859 28.8906ZM56.1484 23.1562C56.1406 22.375 56.8594 21.9062 57.9297 21.9062C59 21.9062 59.7266 22.375 59.7266 23.1562C59.7266 23.9219 59 24.3672 57.9297 24.3594C56.8594 24.3672 56.1406 23.9219 56.1484 23.1562ZM57.3047 28.8906C57.2969 28.1172 58.375 27.7344 60.3047 27.7344C62.2109 27.7344 63.2812 28.1172 63.2891 28.8906C63.2812 29.6406 62.2109 30.0625 60.3047 30.0625C58.375 30.0625 57.2969 29.6406 57.3047 28.8906Z" fill="white"/>
<path d="M75.2109 18.2969C73.0859 18.2969 71.5781 20.2344 71.5859 23.2812C71.5781 26.3516 73.0859 28.2812 75.2109 28.2812C76.5703 28.2812 77.6797 27.4688 78.2969 26.0625H81.4766V31.4062H83.1953V17.2656H81.4766V20.25H78.1719C77.5391 19.0078 76.4844 18.2969 75.2109 18.2969ZM73.2578 23.2812C73.25 21.125 74.0469 19.8594 75.2109 19.8594C76.3828 19.8594 77.1719 21.125 77.1797 23.2812C77.1719 25.4531 76.3828 26.7109 75.2109 26.7188C74.0469 26.7109 73.25 25.4531 73.2578 23.2812ZM78.6641 21.6719H81.4766V24.6562H78.7031C78.7812 24.2266 78.8203 23.7656 78.8203 23.2812C78.8203 22.7031 78.7656 22.1641 78.6641 21.6719Z" fill="white"/>
<path d="M97.2578 17.2656H95.6016V20.8906H94.2266V17.5469H92.6016V25.6719H94.2266V22.2969H95.6016V26.1406H97.2578V17.2656ZM85.1016 20.1562H92.1328V18.7969H89.4922V17.3906H87.7734V18.7969H85.1016V20.1562ZM85.6016 23.1719C85.5859 24.6406 86.8672 25.6094 88.6328 25.6094C90.4297 25.6094 91.6953 24.6406 91.7109 23.1719C91.6953 21.7031 90.4297 20.7266 88.6328 20.7344C86.8672 20.7266 85.5859 21.7031 85.6016 23.1719ZM87.1484 23.1719C87.1484 22.4453 87.75 21.9844 88.6328 21.9844C89.5234 21.9844 90.1328 22.4453 90.1328 23.1719C90.1328 23.8984 89.5234 24.3594 88.6328 24.3594C87.75 24.3594 87.1484 23.8984 87.1484 23.1719ZM87.6484 28.8594C87.6406 30.4531 89.4688 31.375 92.4922 31.375C95.5078 31.375 97.3281 30.4531 97.3359 28.8594C97.3281 27.2344 95.5078 26.3203 92.4922 26.3125C89.4688 26.3203 87.6406 27.2344 87.6484 28.8594ZM89.3828 28.8594C89.375 28.0391 90.4766 27.625 92.4922 27.6406C94.5 27.625 95.5781 28.0391 95.5859 28.8594C95.5781 29.6328 94.5 30.0547 92.4922 30.0469C90.4766 30.0547 89.375 29.6328 89.3828 28.8594Z" fill="white"/>
<path d="M111.914 28.2656H106.289V25.5156H110.445V18.2031H108.711V20.5156H102.164V18.2031H100.43V25.5156H104.57V28.2656H99.0078V29.6875H111.914V28.2656ZM102.164 24.1094V21.9062H108.711V24.1094H102.164Z" fill="white"/>
<path d="M124.633 17.2656H122.883V31.3906H124.633V17.2656ZM112.93 27.5L113.836 28.8906C118.781 26.5391 120.414 22.9688 120.414 18.7656H113.648V20.1406H118.648C118.336 23.3516 116.633 25.7422 112.93 27.5Z" fill="white"/>
</svg>
