<svg width="40" height="40" viewBox="0 0 40 40" fill="none" xmlns="http://www.w3.org/2000/svg">
<g opacity="0.5">
<path d="M40 20C40 31.0457 31.0457 40 20 40C8.9543 40 0 31.0457 0 20C0 8.9543 8.9543 0 20 0C31.0457 0 40 8.9543 40 20Z" fill="black"/>
<path d="M40 20C40 31.0457 31.0457 40 20 40C8.9543 40 0 31.0457 0 20C0 8.9543 8.9543 0 20 0C31.0457 0 40 8.9543 40 20Z" fill="black" fill-opacity="0.2"/>
<path fill-rule="evenodd" clip-rule="evenodd" d="M22.7071 13.2929C23.0976 13.6834 23.0976 14.3166 22.7071 14.7071L17.4142 20L22.7071 25.2929C23.0976 25.6834 23.0976 26.3166 22.7071 26.7071C22.3166 27.0976 21.6834 27.0976 21.2929 26.7071L15.2929 20.7071C14.9024 20.3166 14.9024 19.6834 15.2929 19.2929L21.2929 13.2929C21.6834 12.9024 22.3166 12.9024 22.7071 13.2929Z" fill="white"/>
</g>
</svg>
