<svg width="116" height="48" viewBox="0 0 116 48" fill="none" xmlns="http://www.w3.org/2000/svg">
<g filter="url(#filter0_d_2824_17764)">
<path d="M4 4C4 1.79086 5.79086 0 8 0H108C110.209 0 112 1.79086 112 4V36C112 38.2091 110.209 40 108 40H8C5.79086 40 4 38.2091 4 36V4Z" fill="#3F74E0"/>
<path d="M31.6504 15.3535H27.3711V14H25.8672V15.3535H21.5605V16.584H31.6504V15.3535ZM21 23.2559H25.8672V26.4004H27.3711V23.2559H32.293V22.0117H21V23.2559ZM22.4355 19.2363C22.4355 20.583 24.0078 21.3281 26.6191 21.3281C29.2305 21.3281 30.8027 20.583 30.8027 19.2363C30.8027 17.8828 29.2305 17.1445 26.6191 17.1445C24.0078 17.1445 22.4355 17.8828 22.4355 19.2363ZM24.0215 19.2363C24.0146 18.6074 24.9102 18.2793 26.6191 18.2793C28.3213 18.2793 29.2236 18.6074 29.2305 19.2363C29.2236 19.8721 28.3213 20.2002 26.6191 20.1934C24.9102 20.2002 24.0146 19.8721 24.0215 19.2363Z" fill="white"/>
<path d="M43.4219 14.0273H41.8906V26.3867H43.4219V14.0273ZM33.1816 22.9824L33.9746 24.1992C38.3018 22.1416 39.7305 19.0176 39.7305 15.3398H33.8105V16.543H38.1855C37.9121 19.3525 36.4219 21.4443 33.1816 22.9824Z" fill="white"/>
<path d="M52.9512 16.1738V16.0234H55.5215V14.8066H48.8086V16.0234H51.4199V16.1738C51.4199 17.7939 50.374 19.3936 48.3848 20.0566L49.1914 21.2324C50.6338 20.7402 51.6592 19.7354 52.2061 18.4707C52.7461 19.626 53.7236 20.5488 55.1113 21.0137L55.877 19.8379C53.9287 19.1953 52.9512 17.6982 52.9512 16.1738ZM50.0391 23.2695H56.752V26.3867H58.2695V22.0527H50.0391V23.2695ZM56.752 21.4785H58.2695V18.3887H59.9922V17.1172H58.2695V14.0273H56.752V21.4785Z" fill="white"/>
<path d="M65.1465 15.8047V14.6973H63.6152V15.873C63.6084 17.6572 62.583 19.3047 60.5391 19.9746L61.3457 21.2051C62.8428 20.6787 63.875 19.6191 64.4219 18.2725C64.9482 19.4414 65.8916 20.3438 67.2383 20.8223L68.0586 19.6328C66.124 19.0244 65.1396 17.4863 65.1465 15.8047ZM62.5898 24.0078C62.5762 25.5117 64.1826 26.373 66.7871 26.373C69.4053 26.373 71.0049 25.5117 71.0117 24.0078C71.0049 22.5039 69.4053 21.6221 66.7871 21.6289C64.1826 21.6221 62.5762 22.5039 62.5898 24.0078ZM64.0938 24.0078C64.0869 23.2285 65.0713 22.8115 66.7871 22.8047C68.5166 22.8115 69.4941 23.2285 69.4941 24.0078C69.4941 24.7598 68.5166 25.1768 66.7871 25.1836C65.0713 25.1768 64.0869 24.7598 64.0938 24.0078ZM66.9922 17.6641H69.4531V21.3008H70.9707V14.0273H69.4531V16.4199H66.9922V17.6641Z" fill="white"/>
<path d="M82.4004 14.0273H80.8965V26.3867H82.4004V20.207H84.3008V18.9492H82.4004V14.0273ZM72.6523 17.1445H79.9395V15.9277H77.0957V14.2051H75.5781V15.9277H72.6523V17.1445ZM73.2266 20.8633C73.2129 22.5654 74.5391 23.7617 76.3438 23.7617C78.1211 23.7617 79.4404 22.5654 79.4473 20.8633C79.4404 19.1543 78.1211 17.9443 76.3438 17.9512C74.5391 17.9443 73.2129 19.1543 73.2266 20.8633ZM74.6758 20.8633C74.6689 19.8584 75.373 19.1953 76.3438 19.1953C77.2939 19.1953 77.9844 19.8584 77.998 20.8633C77.9844 21.8682 77.2939 22.5107 76.3438 22.5039C75.373 22.5107 74.6689 21.8682 74.6758 20.8633Z" fill="white"/>
<path d="M95.1426 14.0273H93.6113V26.3867H95.1426V14.0273ZM84.9023 22.9824L85.6953 24.1992C90.0225 22.1416 91.4512 19.0176 91.4512 15.3398H85.5312V16.543H89.9062C89.6328 19.3525 88.1426 21.4443 84.9023 22.9824Z" fill="white"/>
</g>
<defs>
<filter id="filter0_d_2824_17764" x="0" y="0" width="116" height="48" filterUnits="userSpaceOnUse" color-interpolation-filters="sRGB">
<feFlood flood-opacity="0" result="BackgroundImageFix"/>
<feColorMatrix in="SourceAlpha" type="matrix" values="0 0 0 0 0 0 0 0 0 0 0 0 0 0 0 0 0 0 127 0" result="hardAlpha"/>
<feOffset dy="4"/>
<feGaussianBlur stdDeviation="2"/>
<feComposite in2="hardAlpha" operator="out"/>
<feColorMatrix type="matrix" values="0 0 0 0 0 0 0 0 0 0 0 0 0 0 0 0 0 0 0.1 0"/>
<feBlend mode="normal" in2="BackgroundImageFix" result="effect1_dropShadow_2824_17764"/>
<feBlend mode="normal" in="SourceGraphic" in2="effect1_dropShadow_2824_17764" result="shape"/>
</filter>
</defs>
</svg>
