<svg width="108" height="40" viewBox="0 0 108 40" fill="none" xmlns="http://www.w3.org/2000/svg">
<path d="M0 4C0 1.79086 1.79086 0 4 0H104C106.209 0 108 1.79086 108 4V36C108 38.2091 106.209 40 104 40H4C1.79086 40 0 38.2091 0 36V4Z" fill="#4286F4"/>
<path d="M27.6504 15.3535H23.3711V14H21.8672V15.3535H17.5605V16.584H27.6504V15.3535ZM17 23.2559H21.8672V26.4004H23.3711V23.2559H28.293V22.0117H17V23.2559ZM18.4355 19.2363C18.4355 20.583 20.0078 21.3281 22.6191 21.3281C25.2305 21.3281 26.8027 20.583 26.8027 19.2363C26.8027 17.8828 25.2305 17.1445 22.6191 17.1445C20.0078 17.1445 18.4355 17.8828 18.4355 19.2363ZM20.0215 19.2363C20.0146 18.6074 20.9102 18.2793 22.6191 18.2793C24.3213 18.2793 25.2236 18.6074 25.2305 19.2363C25.2236 19.8721 24.3213 20.2002 22.6191 20.1934C20.9102 20.2002 20.0146 19.8721 20.0215 19.2363Z" fill="white"/>
<path d="M39.4219 14.0273H37.8906V26.3867H39.4219V14.0273ZM29.1816 22.9824L29.9746 24.1992C34.3018 22.1416 35.7305 19.0176 35.7305 15.3398H29.8105V16.543H34.1855C33.9121 19.3525 32.4219 21.4443 29.1816 22.9824Z" fill="white"/>
<path d="M48.9512 16.1738V16.0234H51.5215V14.8066H44.8086V16.0234H47.4199V16.1738C47.4199 17.7939 46.374 19.3936 44.3848 20.0566L45.1914 21.2324C46.6338 20.7402 47.6592 19.7354 48.2061 18.4707C48.7461 19.626 49.7236 20.5488 51.1113 21.0137L51.877 19.8379C49.9287 19.1953 48.9512 17.6982 48.9512 16.1738ZM46.0391 23.2695H52.752V26.3867H54.2695V22.0527H46.0391V23.2695ZM52.752 21.4785H54.2695V18.3887H55.9922V17.1172H54.2695V14.0273H52.752V21.4785Z" fill="white"/>
<path d="M61.1465 15.8047V14.6973H59.6152V15.873C59.6084 17.6572 58.583 19.3047 56.5391 19.9746L57.3457 21.2051C58.8428 20.6787 59.875 19.6191 60.4219 18.2725C60.9482 19.4414 61.8916 20.3438 63.2383 20.8223L64.0586 19.6328C62.124 19.0244 61.1396 17.4863 61.1465 15.8047ZM58.5898 24.0078C58.5762 25.5117 60.1826 26.373 62.7871 26.373C65.4053 26.373 67.0049 25.5117 67.0117 24.0078C67.0049 22.5039 65.4053 21.6221 62.7871 21.6289C60.1826 21.6221 58.5762 22.5039 58.5898 24.0078ZM60.0938 24.0078C60.0869 23.2285 61.0713 22.8115 62.7871 22.8047C64.5166 22.8115 65.4941 23.2285 65.4941 24.0078C65.4941 24.7598 64.5166 25.1768 62.7871 25.1836C61.0713 25.1768 60.0869 24.7598 60.0938 24.0078ZM62.9922 17.6641H65.4531V21.3008H66.9707V14.0273H65.4531V16.4199H62.9922V17.6641Z" fill="white"/>
<path d="M78.4004 14.0273H76.8965V26.3867H78.4004V20.207H80.3008V18.9492H78.4004V14.0273ZM68.6523 17.1445H75.9395V15.9277H73.0957V14.2051H71.5781V15.9277H68.6523V17.1445ZM69.2266 20.8633C69.2129 22.5654 70.5391 23.7617 72.3438 23.7617C74.1211 23.7617 75.4404 22.5654 75.4473 20.8633C75.4404 19.1543 74.1211 17.9443 72.3438 17.9512C70.5391 17.9443 69.2129 19.1543 69.2266 20.8633ZM70.6758 20.8633C70.6689 19.8584 71.373 19.1953 72.3438 19.1953C73.2939 19.1953 73.9844 19.8584 73.998 20.8633C73.9844 21.8682 73.2939 22.5107 72.3438 22.5039C71.373 22.5107 70.6689 21.8682 70.6758 20.8633Z" fill="white"/>
<path d="M91.1426 14.0273H89.6113V26.3867H91.1426V14.0273ZM80.9023 22.9824L81.6953 24.1992C86.0225 22.1416 87.4512 19.0176 87.4512 15.3398H81.5312V16.543H85.9062C85.6328 19.3525 84.1426 21.4443 80.9023 22.9824Z" fill="white"/>
</svg>
