<svg width="56" height="19" viewBox="0 0 56 19" fill="none" xmlns="http://www.w3.org/2000/svg">
<path d="M17.7158 10.1305H10.0375V8.53319H15.7426V6.74668H4.65416V5.3385H15.1206V3.59403H4.65416V2.29093H15.5925V0.462389H2.27346V8.53319H7.65684V10.1305H0V11.9801H17.7158V10.1305ZM1.99464 15.1748H13.0831V19H15.4853V13.3252H1.99464V15.1748Z" fill="black"/>
<path d="M17.7158 10.1305H10.0375V8.53319H15.7426V6.74668H4.65416V5.3385H15.1206V3.59403H4.65416V2.29093H15.5925V0.462389H2.27346V8.53319H7.65684V10.1305H0V11.9801H17.7158V10.1305ZM1.99464 15.1748H13.0831V19H15.4853V13.3252H1.99464V15.1748Z" fill="black" fill-opacity="0.2"/>
<path d="M25.8874 3.02655V1.00885H23.5067V2.81637C23.496 5.52765 21.9303 8.06029 18.8097 9.12168L20.0965 10.9502C22.3271 10.1831 23.8928 8.59624 24.7292 6.57854C25.5764 8.34403 27.0777 9.73119 29.1689 10.4248L30.4558 8.59624C27.4638 7.67146 25.8874 5.41206 25.8874 3.02655ZM21.4477 15.3639C21.4477 17.6654 23.9678 18.979 28.0107 18.979C32.0214 18.979 34.4987 17.6654 34.5094 15.3639C34.4987 13.115 32.0214 11.7804 28.0107 11.7909C23.9678 11.7804 21.4477 13.115 21.4477 15.3639ZM23.8284 15.3639C23.8284 14.25 25.3512 13.6195 28.0107 13.6195C30.6595 13.6195 32.1501 14.25 32.1501 15.3639C32.1501 16.5409 30.6595 17.1294 28.0107 17.1294C25.3512 17.1294 23.8284 16.5409 23.8284 15.3639ZM31.9357 11.3706H34.3164V6.55752H37.0188V4.62389H34.3164V0H31.9357V11.3706Z" fill="black"/>
<path d="M25.8874 3.02655V1.00885H23.5067V2.81637C23.496 5.52765 21.9303 8.06029 18.8097 9.12168L20.0965 10.9502C22.3271 10.1831 23.8928 8.59624 24.7292 6.57854C25.5764 8.34403 27.0777 9.73119 29.1689 10.4248L30.4558 8.59624C27.4638 7.67146 25.8874 5.41206 25.8874 3.02655ZM21.4477 15.3639C21.4477 17.6654 23.9678 18.979 28.0107 18.979C32.0214 18.979 34.4987 17.6654 34.5094 15.3639C34.4987 13.115 32.0214 11.7804 28.0107 11.7909C23.9678 11.7804 21.4477 13.115 21.4477 15.3639ZM23.8284 15.3639C23.8284 14.25 25.3512 13.6195 28.0107 13.6195C30.6595 13.6195 32.1501 14.25 32.1501 15.3639C32.1501 16.5409 30.6595 17.1294 28.0107 17.1294C25.3512 17.1294 23.8284 16.5409 23.8284 15.3639ZM31.9357 11.3706H34.3164V6.55752H37.0188V4.62389H34.3164V0H31.9357V11.3706Z" fill="black" fill-opacity="0.2"/>
<path d="M53.2976 0H50.9169V10.698H53.2976V6.34735H56V4.41372H53.2976V0ZM38.8204 9.8573H40.3861C44.622 9.8573 46.874 9.77323 49.4155 9.22677L49.1582 7.37721C46.8525 7.82909 44.8257 7.9552 41.1796 7.96571V3.11062H47.4424V1.21903H38.8204V9.8573ZM40.7721 18.7478H53.2976V11.5597H40.7721V18.7478ZM43.1314 16.8982V13.4303H50.9383V16.8982H43.1314Z" fill="black"/>
<path d="M53.2976 0H50.9169V10.698H53.2976V6.34735H56V4.41372H53.2976V0ZM38.8204 9.8573H40.3861C44.622 9.8573 46.874 9.77323 49.4155 9.22677L49.1582 7.37721C46.8525 7.82909 44.8257 7.9552 41.1796 7.96571V3.11062H47.4424V1.21903H38.8204V9.8573ZM40.7721 18.7478H53.2976V11.5597H40.7721V18.7478ZM43.1314 16.8982V13.4303H50.9383V16.8982H43.1314Z" fill="black" fill-opacity="0.2"/>
</svg>
