<svg width="20" height="19" viewBox="0 0 20 19" fill="none" xmlns="http://www.w3.org/2000/svg">
<mask id="path-1-inside-1_2545_1444" fill="white">
<path d="M14.5 0C12.76 0 11.09 0.81 10 2.09C8.91 0.81 7.24 0 5.5 0C2.42 0 0 2.42 0 5.5C0 9.28 3.4 12.36 8.55 17.04L10 18.35L11.45 17.03C16.6 12.36 20 9.28 20 5.5C20 2.42 17.58 0 14.5 0ZM10.1 15.55L10 15.65L9.9 15.55C5.14 11.24 2 8.39 2 5.5C2 3.5 3.5 2 5.5 2C7.04 2 8.54 2.99 9.07 4.36H10.94C11.46 2.99 12.96 2 14.5 2C16.5 2 18 3.5 18 5.5C18 8.39 14.86 11.24 10.1 15.55Z"/>
</mask>
<path d="M14.5 0C12.76 0 11.09 0.81 10 2.09C8.91 0.81 7.24 0 5.5 0C2.42 0 0 2.42 0 5.5C0 9.28 3.4 12.36 8.55 17.04L10 18.35L11.45 17.03C16.6 12.36 20 9.28 20 5.5C20 2.42 17.58 0 14.5 0ZM10.1 15.55L10 15.65L9.9 15.55C5.14 11.24 2 8.39 2 5.5C2 3.5 3.5 2 5.5 2C7.04 2 8.54 2.99 9.07 4.36H10.94C11.46 2.99 12.96 2 14.5 2C16.5 2 18 3.5 18 5.5C18 8.39 14.86 11.24 10.1 15.55Z" fill="#AAAAAA"/>
<path d="M10 2.09L6.95459 4.68336L10 8.25961L13.0454 4.68336L10 2.09ZM8.55 17.04L5.85987 20.0003L5.86849 20.0081L8.55 17.04ZM10 18.35L7.31849 21.3181L10.0102 23.7499L12.6927 21.3079L10 18.35ZM11.45 17.03L8.76303 14.0669L8.75728 14.0721L11.45 17.03ZM10.1 15.55L7.41521 12.5849L7.3417 12.6515L7.27157 12.7216L10.1 15.55ZM10 15.65L7.17157 18.4784L10 21.3069L12.8284 18.4784L10 15.65ZM9.9 15.55L12.7284 12.7216L12.6583 12.6515L12.5848 12.5849L9.9 15.55ZM9.07 4.36L5.33943 5.80321L6.32855 8.36H9.07V4.36ZM10.94 4.36V8.36H13.7002L14.6797 5.77944L10.94 4.36ZM14.5 -4C11.5489 -4 8.77897 -2.64574 6.95459 -0.503355L13.0454 4.68336C13.401 4.26574 13.9711 4 14.5 4V-4ZM13.0454 -0.503355C11.221 -2.64574 8.45115 -4 5.5 -4V4C6.02885 4 6.59897 4.26574 6.95459 4.68336L13.0454 -0.503355ZM5.5 -4C0.210861 -4 -4 0.210861 -4 5.5H4C4 4.62914 4.62914 4 5.5 4V-4ZM-4 5.5C-4 8.70388 -2.52298 11.2989 -0.753306 13.464C0.970346 15.5727 3.36627 17.7342 5.85988 20.0003L11.2401 14.0797C8.58373 11.6658 6.70465 9.94728 5.44081 8.40105C4.22298 6.91112 4 6.07612 4 5.5H-4ZM5.86849 20.0081L7.31849 21.3181L12.6815 15.3819L11.2315 14.0719L5.86849 20.0081ZM12.6927 21.3079L14.1427 19.9879L8.75728 14.0721L7.30728 15.3921L12.6927 21.3079ZM14.137 19.9931C16.6315 17.7311 19.0279 15.5722 20.7525 13.4637C22.523 11.2991 24 8.70393 24 5.5H16C16 6.07607 15.777 6.91089 14.56 8.39876C13.2971 9.94279 11.4185 11.6589 8.76303 14.0669L14.137 19.9931ZM24 5.5C24 0.210861 19.7891 -4 14.5 -4V4C15.3709 4 16 4.62914 16 5.5H24ZM7.27157 12.7216L7.17157 12.8216L12.8284 18.4784L12.9284 18.3784L7.27157 12.7216ZM12.8284 12.8216L12.7284 12.7216L7.07157 18.3784L7.17157 18.4784L12.8284 12.8216ZM12.5848 12.5849C10.1347 10.3664 8.38112 8.76707 7.20402 7.39166C5.98806 5.97084 6 5.46856 6 5.5H-2C-2 8.42144 -0.418061 10.7892 1.12598 12.5933C2.70888 14.4429 4.9053 16.4236 7.2152 18.5151L12.5848 12.5849ZM6 5.5C6 5.49902 6 5.50098 6 5.50001C6 5.49904 5.99999 5.501 6 5.50004C6 5.50006 6 5.5001 6 5.50015C6 5.50025 6 5.5004 5.99999 5.5006C5.99998 5.501 5.99996 5.50159 5.99993 5.50237C5.99985 5.50394 5.99971 5.50622 5.99942 5.5092C5.99885 5.5152 5.99776 5.5237 5.99568 5.53445C5.99146 5.55628 5.98366 5.58502 5.96999 5.61856C5.94189 5.68755 5.89509 5.76177 5.82843 5.82843C5.76177 5.89509 5.68755 5.94189 5.61856 5.96999C5.58502 5.98366 5.55628 5.99146 5.53445 5.99568C5.5237 5.99776 5.5152 5.99885 5.5092 5.99942C5.50622 5.99971 5.50394 5.99985 5.50237 5.99993C5.50159 5.99996 5.501 5.99998 5.5006 5.99999C5.5004 6 5.50025 6 5.50015 6C5.5001 6 5.50006 6 5.50004 6C5.501 5.99999 5.49904 6 5.50001 6C5.50098 6 5.49902 6 5.5 6V-2C1.29086 -2 -2 1.29086 -2 5.5H6ZM5.5 6C5.47829 6 5.46268 5.99827 5.45331 5.99679C5.44856 5.99605 5.44515 5.99533 5.44302 5.99483C5.44089 5.99433 5.43984 5.994 5.43978 5.99398C5.43971 5.99397 5.44041 5.99418 5.44176 5.99471C5.44312 5.99524 5.44489 5.996 5.44696 5.99698C5.45136 5.99908 5.45547 6.00144 5.45864 6.00354C5.46712 6.00914 5.45902 6.00596 5.4393 5.98243C5.41917 5.95841 5.3774 5.90136 5.33943 5.80321L12.8006 2.91679C11.6354 -0.0950278 8.58136 -2 5.5 -2V6ZM9.07 8.36H10.94V0.36H9.07V8.36ZM14.6797 5.77944C14.64 5.88384 14.5954 5.94591 14.5724 5.97352C14.5498 6.0006 14.539 6.00593 14.5456 6.00153C14.5479 6.00006 14.5512 5.99812 14.555 5.9963C14.5588 5.99449 14.561 5.99378 14.5608 5.99384C14.5606 5.9939 14.5561 5.99531 14.5468 5.99678C14.5373 5.99827 14.5217 6 14.5 6V-2C11.4247 -2 8.35349 -0.0976073 7.20032 2.94056L14.6797 5.77944ZM14.5 6C14.501 6 14.499 6 14.5 6C14.501 6 14.499 5.99999 14.5 6C14.4999 6 14.4999 6 14.4998 6C14.4997 6 14.4996 6 14.4994 5.99999C14.499 5.99998 14.4984 5.99996 14.4976 5.99993C14.4961 5.99985 14.4938 5.99971 14.4908 5.99942C14.4848 5.99885 14.4763 5.99776 14.4655 5.99568C14.4437 5.99146 14.415 5.98366 14.3814 5.96999C14.3124 5.94189 14.2382 5.89509 14.1716 5.82843C14.1049 5.76177 14.0581 5.68755 14.03 5.61856C14.0163 5.58502 14.0085 5.55628 14.0043 5.53445C14.0022 5.5237 14.0011 5.5152 14.0006 5.5092C14.0003 5.50622 14.0001 5.50394 14.0001 5.50237C14 5.50159 14 5.501 14 5.5006C14 5.5004 14 5.50025 14 5.50015C14 5.5001 14 5.50006 14 5.50004C14 5.501 14 5.49904 14 5.50001C14 5.50098 14 5.49902 14 5.5H22C22 1.29086 18.7091 -2 14.5 -2V6ZM14 5.5C14 5.46856 14.0119 5.97084 12.796 7.39166C11.6189 8.76707 9.8653 10.3664 7.41521 12.5849L12.7848 18.5151C15.0947 16.4236 17.2911 14.4429 18.874 12.5933C20.4181 10.7892 22 8.42144 22 5.5H14Z" fill="#AAAAAA" mask="url(#path-1-inside-1_2545_1444)"/>
</svg>
