<svg width="18" height="18" viewBox="0 0 18 18" fill="none" xmlns="http://www.w3.org/2000/svg">
<path d="M17.012 0H0.997826C0.45 0 0 0.449512 0 0.996743V16.9935C0 17.5407 0.45 17.9902 0.997826 17.9902H9.61631V11.0326H7.27826V8.31596H9.61631V6.3127C9.61631 3.98697 11.0348 2.72638 13.1185 2.72638C13.813 2.72638 14.5174 2.72638 15.212 2.83388V5.25733H13.7739C12.6391 5.25733 12.4239 5.79479 12.4239 6.58632V8.31596H15.1239L14.7717 11.0326H12.4239V18H17.0022C17.55 18 18 17.5505 18 17.0033V0.996743C18 0.449512 17.55 0 17.0022 0H17.012Z" fill="#AAAAAA"/>
</svg>
