<svg width="18" height="18" viewBox="0 0 18 18" fill="none" xmlns="http://www.w3.org/2000/svg">
<path d="M13.8063 5.28599C14.4034 5.28599 14.8875 4.80192 14.8875 4.20479C14.8875 3.60766 14.4034 3.12359 13.8063 3.12359C13.2091 3.12359 12.7251 3.60766 12.7251 4.20479C12.7251 4.80192 13.2091 5.28599 13.8063 5.28599Z" fill="#AAAAAA"/>
<path d="M9.00109 4.38475C6.44826 4.38475 4.37596 6.45706 4.37596 9.00989C4.37596 11.5627 6.44826 13.635 9.00109 13.635C11.5539 13.635 13.6262 11.5627 13.6262 9.00989C13.6262 6.45706 11.5539 4.38475 9.00109 4.38475ZM9.00109 12.0132C7.33925 12.0132 5.99776 10.6717 5.99776 9.00989C5.99776 7.34805 7.33925 6.00656 9.00109 6.00656C10.6629 6.00656 12.0044 7.34805 12.0044 9.00989C12.0044 10.6717 10.6629 12.0132 9.00109 12.0132Z" fill="#AAAAAA"/>
<path d="M9 1.6218C11.4027 1.6218 11.693 1.6218 12.644 1.67186C13.2147 1.67186 13.7853 1.78198 14.3159 1.9822C15.0968 2.28254 15.7275 2.90323 16.0278 3.6941C16.228 4.23471 16.3281 4.79533 16.3382 5.36596C16.3782 6.31702 16.3882 6.59733 16.3882 9.01001C16.3882 11.4227 16.3882 11.703 16.3382 12.6541C16.3382 13.2247 16.228 13.7953 16.0278 14.3259C15.7275 15.1068 15.1068 15.7375 14.3159 16.0378C13.7753 16.238 13.2147 16.3382 12.644 16.3482C11.693 16.3882 11.4127 16.3982 9 16.3982C6.58732 16.3982 6.30701 16.3982 5.35595 16.3482C4.78532 16.3482 4.21468 16.238 3.68409 16.0378C2.90323 15.7375 2.27253 15.1168 1.97219 14.3259C1.77197 13.7853 1.67186 13.2247 1.66185 12.6541C1.6218 11.703 1.61179 11.4227 1.61179 9.01001C1.61179 6.59733 1.61179 6.31702 1.66185 5.36596C1.66185 4.79533 1.77197 4.22469 1.97219 3.6941C2.27253 2.91324 2.89321 2.28254 3.68409 1.9822C4.22469 1.78198 4.78532 1.68187 5.35595 1.67186C6.30701 1.63181 6.58732 1.6218 9 1.6218ZM9 0C6.55729 0 6.24694 0.0100111 5.28587 0.0500556C4.53504 0.0600667 3.79422 0.210234 3.10345 0.470523C1.8921 0.941046 0.941046 1.8921 0.470523 3.10345C0.210234 3.80423 0.0700778 4.54505 0.0500556 5.28587C0.0100111 6.24694 0 6.55729 0 9C0 11.4427 0.0100111 11.7531 0.0500556 12.7141C0.0600667 13.465 0.210234 14.2058 0.470523 14.8966C0.941046 16.1079 1.8921 17.059 3.10345 17.5295C3.80423 17.7898 4.54505 17.9299 5.28587 17.9499C6.24694 17.99 6.55729 18 9 18C11.4427 18 11.7531 17.99 12.7141 17.9499C13.465 17.9399 14.2058 17.7898 14.8966 17.5295C16.1079 17.059 17.059 16.1079 17.5295 14.8966C17.7898 14.1958 17.9299 13.4549 17.9499 12.7141C17.99 11.7531 18 11.4427 18 9C18 6.55729 17.99 6.24694 17.9499 5.28587C17.9399 4.53504 17.7898 3.79422 17.5295 3.10345C17.059 1.8921 16.1079 0.941046 14.8966 0.470523C14.1958 0.210234 13.4549 0.0700778 12.7141 0.0500556C11.7531 0.0100111 11.4427 0 9 0Z" fill="#AAAAAA"/>
</svg>
