<svg width="320" height="48" viewBox="0 0 320 48" fill="none" xmlns="http://www.w3.org/2000/svg">
<rect width="320" height="48" rx="4" fill="#FEE500"/>
<path d="M98 16.5C93.03 16.5 89 19.6496 89 23.5337C89 25.9487 90.56 28.0819 92.93 29.3498L91.93 33.0427C91.84 33.3647 92.21 33.6263 92.49 33.4351L96.87 30.517C97.24 30.5573 97.61 30.5774 98 30.5774C102.97 30.5774 107 27.4278 107 23.5437C107 19.6596 102.97 16.5 98 16.5Z" fill="#191919"/>
<path d="M126.602 18.6562H120.117V20.0625H124.875C124.82 20.8047 124.703 21.5 124.523 22.1641L119.383 22.4844L119.602 23.9844L124 23.5703C123.18 25.2422 121.719 26.6562 119.273 27.8594L120.227 29.1719C125.43 26.5859 126.594 22.9219 126.602 18.6562ZM128.586 31.3594H130.32V24.2188H132.414V22.7969H130.32V17.2656H128.586V31.3594ZM140.43 18.6562H133.945V20.0625H138.703C138.648 20.8047 138.531 21.5 138.352 22.1641L133.211 22.4844L133.43 23.9844L137.828 23.5703C137.008 25.2422 135.547 26.6562 133.102 27.8594L134.055 29.1719C139.258 26.5859 140.422 22.9219 140.43 18.6562ZM142.414 31.3594H144.148V24.2188H146.242V22.7969H144.148V17.2656H142.414V31.3594ZM153.336 18.0625C150.328 18.0703 148.094 19.5781 148.102 21.875C148.094 23.9922 149.914 25.4062 152.477 25.6641V28.25H146.914V29.6719H159.82V28.25H154.195V25.6641C156.789 25.4062 158.609 23.9922 158.602 21.875C158.609 19.5781 156.367 18.0703 153.336 18.0625ZM149.805 21.875C149.797 20.3984 151.273 19.4609 153.336 19.4688C155.43 19.4609 156.898 20.3984 156.898 21.875C156.898 23.3984 155.43 24.3125 153.336 24.3125C151.273 24.3125 149.797 23.3984 149.805 21.875ZM172.93 17.2656H171.273V31.3906H172.93V17.2656ZM160.602 27.1719L161.617 28.4062C164.266 26.8438 165.734 24.8281 166.406 22.4844H168.352V24.5781H166.148V26H168.352V30.7188H170.008V17.6094H168.352V21.0625H166.703C166.805 20.3906 166.852 19.6953 166.852 18.9844H161.352V20.3906H165.133C164.867 23.2344 163.523 25.4453 160.602 27.1719ZM186.398 17.2656H184.664V20.7812H182.258V22.2031H184.664V25.6562H186.398V17.2656ZM174.523 24.25L175.43 25.625C177.109 25.0312 178.289 23.8125 178.906 22.3125C179.531 23.6406 180.641 24.7188 182.211 25.25L183.086 23.875C180.898 23.1406 179.758 21.4062 179.758 19.6875V19.5938H182.68V18.1875H175.055V19.5938H177.992V19.7031C177.992 21.5703 176.797 23.4688 174.523 24.25ZM176.82 28.7031C176.805 30.3984 178.641 31.3828 181.617 31.3906C184.609 31.3828 186.438 30.3984 186.445 28.7031C186.438 27.0078 184.609 26.0156 181.617 26.0156C178.641 26.0156 176.805 27.0078 176.82 28.7031ZM178.539 28.7031C178.531 27.8203 179.656 27.3438 181.617 27.3438C183.594 27.3438 184.711 27.8203 184.711 28.7031C184.711 29.5781 183.594 30.0547 181.617 30.0469C179.656 30.0547 178.531 29.5781 178.539 28.7031ZM205.102 28.3125H199.477V26.0156H203.898V24.5938H195.461V22.7656H203.57V18.2344H193.695V19.6406H201.852V21.3906H193.727V26.0156H197.758V28.3125H192.195V29.75H205.102V28.3125ZM217.258 18.6406H207.383V20.0469H215.523V20.2344C215.523 22.0703 215.523 24.1172 214.977 26.8906L216.742 27.0469C217.258 24.0703 217.258 22.125 217.258 20.2344V18.6406ZM206.023 29.4531H218.898V28.0312H206.023V29.4531ZM231.617 17.2812H229.867V27.4844H231.617V17.2812ZM220.102 21.7344C220.102 23.8203 221.766 25.2812 223.914 25.2812C226.062 25.2812 227.719 23.8203 227.711 21.7344C227.719 19.6797 226.062 18.2109 223.914 18.2031C221.766 18.2109 220.102 19.6797 220.102 21.7344ZM221.805 21.7344C221.797 20.5156 222.703 19.7188 223.914 19.7188C225.094 19.7188 226.008 20.5156 226.008 21.7344C226.008 22.9844 225.094 23.7656 223.914 23.7656C222.703 23.7656 221.797 22.9844 221.805 21.7344ZM222.273 31.1094H232.008V29.7031H224.023V26.4531H222.273V31.1094Z" fill="black"/>
<path d="M126.602 18.6562H120.117V20.0625H124.875C124.82 20.8047 124.703 21.5 124.523 22.1641L119.383 22.4844L119.602 23.9844L124 23.5703C123.18 25.2422 121.719 26.6562 119.273 27.8594L120.227 29.1719C125.43 26.5859 126.594 22.9219 126.602 18.6562ZM128.586 31.3594H130.32V24.2188H132.414V22.7969H130.32V17.2656H128.586V31.3594ZM140.43 18.6562H133.945V20.0625H138.703C138.648 20.8047 138.531 21.5 138.352 22.1641L133.211 22.4844L133.43 23.9844L137.828 23.5703C137.008 25.2422 135.547 26.6562 133.102 27.8594L134.055 29.1719C139.258 26.5859 140.422 22.9219 140.43 18.6562ZM142.414 31.3594H144.148V24.2188H146.242V22.7969H144.148V17.2656H142.414V31.3594ZM153.336 18.0625C150.328 18.0703 148.094 19.5781 148.102 21.875C148.094 23.9922 149.914 25.4062 152.477 25.6641V28.25H146.914V29.6719H159.82V28.25H154.195V25.6641C156.789 25.4062 158.609 23.9922 158.602 21.875C158.609 19.5781 156.367 18.0703 153.336 18.0625ZM149.805 21.875C149.797 20.3984 151.273 19.4609 153.336 19.4688C155.43 19.4609 156.898 20.3984 156.898 21.875C156.898 23.3984 155.43 24.3125 153.336 24.3125C151.273 24.3125 149.797 23.3984 149.805 21.875ZM172.93 17.2656H171.273V31.3906H172.93V17.2656ZM160.602 27.1719L161.617 28.4062C164.266 26.8438 165.734 24.8281 166.406 22.4844H168.352V24.5781H166.148V26H168.352V30.7188H170.008V17.6094H168.352V21.0625H166.703C166.805 20.3906 166.852 19.6953 166.852 18.9844H161.352V20.3906H165.133C164.867 23.2344 163.523 25.4453 160.602 27.1719ZM186.398 17.2656H184.664V20.7812H182.258V22.2031H184.664V25.6562H186.398V17.2656ZM174.523 24.25L175.43 25.625C177.109 25.0312 178.289 23.8125 178.906 22.3125C179.531 23.6406 180.641 24.7188 182.211 25.25L183.086 23.875C180.898 23.1406 179.758 21.4062 179.758 19.6875V19.5938H182.68V18.1875H175.055V19.5938H177.992V19.7031C177.992 21.5703 176.797 23.4688 174.523 24.25ZM176.82 28.7031C176.805 30.3984 178.641 31.3828 181.617 31.3906C184.609 31.3828 186.438 30.3984 186.445 28.7031C186.438 27.0078 184.609 26.0156 181.617 26.0156C178.641 26.0156 176.805 27.0078 176.82 28.7031ZM178.539 28.7031C178.531 27.8203 179.656 27.3438 181.617 27.3438C183.594 27.3438 184.711 27.8203 184.711 28.7031C184.711 29.5781 183.594 30.0547 181.617 30.0469C179.656 30.0547 178.531 29.5781 178.539 28.7031ZM205.102 28.3125H199.477V26.0156H203.898V24.5938H195.461V22.7656H203.57V18.2344H193.695V19.6406H201.852V21.3906H193.727V26.0156H197.758V28.3125H192.195V29.75H205.102V28.3125ZM217.258 18.6406H207.383V20.0469H215.523V20.2344C215.523 22.0703 215.523 24.1172 214.977 26.8906L216.742 27.0469C217.258 24.0703 217.258 22.125 217.258 20.2344V18.6406ZM206.023 29.4531H218.898V28.0312H206.023V29.4531ZM231.617 17.2812H229.867V27.4844H231.617V17.2812ZM220.102 21.7344C220.102 23.8203 221.766 25.2812 223.914 25.2812C226.062 25.2812 227.719 23.8203 227.711 21.7344C227.719 19.6797 226.062 18.2109 223.914 18.2031C221.766 18.2109 220.102 19.6797 220.102 21.7344ZM221.805 21.7344C221.797 20.5156 222.703 19.7188 223.914 19.7188C225.094 19.7188 226.008 20.5156 226.008 21.7344C226.008 22.9844 225.094 23.7656 223.914 23.7656C222.703 23.7656 221.797 22.9844 221.805 21.7344ZM222.273 31.1094H232.008V29.7031H224.023V26.4531H222.273V31.1094Z" fill="black" fill-opacity="0.2"/>
</svg>
