<svg width="320" height="48" viewBox="0 0 320 48" fill="none" xmlns="http://www.w3.org/2000/svg">
<rect width="320" height="48" rx="4" fill="#4286F4"/>
<path d="M121.922 17.2656H120.172V31.4062H121.922V17.2656ZM110.625 23.2812C110.617 26.3516 112.172 28.2812 114.312 28.2812C116.43 28.2812 117.992 26.3516 118 23.2812C117.992 20.2344 116.43 18.2969 114.312 18.2969C112.172 18.2969 110.617 20.2344 110.625 23.2812ZM112.297 23.2812C112.297 21.125 113.117 19.8594 114.312 19.8594C115.5 19.8594 116.312 21.125 116.312 23.2812C116.312 25.4531 115.5 26.7109 114.312 26.7188C113.117 26.7109 112.297 25.4531 112.297 23.2812ZM129.984 18.7969H124.438V27.75H129.984V23.875H131.625V30.7031H133.281V17.5156H131.625V22.4688H129.984V18.7969ZM126.062 26.375V20.1719H128.359V26.375H126.062ZM134.516 31.3906H136.188V17.2656H134.516V31.3906ZM141.828 17.7188C139.672 17.7266 138.078 19.0469 138.078 20.9062C138.078 22.7734 139.672 24.0859 141.828 24.0938C143.969 24.0859 145.562 22.7734 145.578 20.9062C145.562 19.0469 143.969 17.7266 141.828 17.7188ZM139.766 20.9062C139.766 19.8359 140.641 19.1484 141.828 19.1562C143.016 19.1484 143.883 19.8359 143.891 20.9062C143.883 22 143.016 22.6875 141.828 22.6875C140.641 22.6875 139.766 22 139.766 20.9062ZM140.219 26.375H147.859V27.4219H140.25V31.2188H150.016V29.8438H141.953V28.7031H149.594V25.0156H140.219V26.375ZM147.844 24.4062H149.594V17.2656H147.844V24.4062ZM167.219 17.2656H165.484V31.3906H167.219V17.2656ZM155.516 27.4688L155.766 28.9062C158.305 28.9062 161.68 28.8672 164.781 28.3438L164.656 27.0469C163.477 27.2031 162.227 27.3047 160.984 27.3594V26.1172C162.57 25.8594 163.609 24.8984 163.609 23.5625C163.609 21.9688 162.172 20.9141 160.094 20.9062C158.039 20.9141 156.625 21.9688 156.625 23.5625C156.625 24.9062 157.664 25.875 159.25 26.125V27.4219C157.914 27.4609 156.641 27.4609 155.516 27.4688ZM155.812 20.2656H164.406V18.8906H160.984V17.3125H159.25V18.8906H155.812V20.2656ZM158.281 23.5625C158.266 22.7422 159.023 22.2422 160.094 22.2344C161.195 22.2422 161.945 22.7422 161.938 23.5625C161.945 24.375 161.195 24.8516 160.094 24.8438C159.023 24.8516 158.266 24.375 158.281 23.5625ZM181.125 17.2812H179.375V25.5156H176.609V26.7344H179.375V27.9688H181.125V17.2812ZM169.219 23.625L169.438 25.0156C170.547 25.0156 171.805 25.0078 173.125 24.9531V27.5781H174.859V24.8594C176.055 24.7734 177.258 24.6484 178.422 24.4531L178.328 23.2031C175.328 23.5859 171.82 23.6094 169.219 23.625ZM170.297 20.2969C170.297 21.8125 171.734 22.7734 173.828 22.7812C175.883 22.7734 177.328 21.8125 177.344 20.2969C177.328 18.8047 175.883 17.7891 173.828 17.7969C171.734 17.7891 170.297 18.8047 170.297 20.2969ZM171.094 31.1094H181.453V29.7031H172.828V26.9375H171.094V31.1094ZM171.938 20.2969C171.938 19.5312 172.695 19.0703 173.828 19.0781C174.906 19.0703 175.68 19.5312 175.688 20.2969C175.68 21.0625 174.906 21.5078 173.828 21.5156C172.695 21.5078 171.938 21.0625 171.938 20.2969ZM194.172 17.2656H192.438V31.3594H194.172V24.2344H196.266V22.7812H194.172V17.2656ZM183.031 27.5L184.016 28.8438C188.711 26.5312 190.43 22.8828 190.438 18.7344H183.797V20.1719H188.672C188.328 23.3906 186.469 25.7812 183.031 27.5ZM208.703 17.2656H206.953V24.8438H208.703V17.2656ZM197.188 21.2031C197.188 23.1328 198.812 24.4922 201 24.4844C203.18 24.4922 204.805 23.1328 204.797 21.2031C204.805 19.2422 203.18 17.8828 201 17.8906C198.812 17.8828 197.188 19.2422 197.188 21.2031ZM198.891 21.2031C198.883 20.0703 199.766 19.3359 201 19.3438C202.211 19.3359 203.094 20.0703 203.094 21.2031C203.094 22.3359 202.211 23.0547 201 23.0625C199.766 23.0547 198.883 22.3359 198.891 21.2031ZM199.359 31.2188H208.703V25.5H206.969V26.9531H201.078V25.5H199.359V31.2188ZM201.078 29.8125V28.3125H206.969V29.8125H201.078Z" fill="white"/>
</svg>
