<svg width="320" height="48" viewBox="0 0 320 48" fill="none" xmlns="http://www.w3.org/2000/svg">
<rect width="320" height="48" rx="4" fill="#CCCCCC"/>
<path d="M120.023 17.2656H118.273V31.4062H120.023V17.2656ZM109.023 28.0781H115.898V18.4219H114.18V21.9531H110.758V18.4219H109.023V28.0781ZM110.758 26.6562V23.3125H114.18V26.6562H110.758ZM133.867 17.2656H132.133V31.3906H133.867V17.2656ZM122.164 27.4688L122.414 28.9062C124.953 28.9062 128.328 28.8672 131.43 28.3438L131.305 27.0469C130.125 27.2031 128.875 27.3047 127.633 27.3594V26.1172C129.219 25.8594 130.258 24.8984 130.258 23.5625C130.258 21.9688 128.82 20.9141 126.742 20.9062C124.688 20.9141 123.273 21.9688 123.273 23.5625C123.273 24.9062 124.312 25.875 125.898 26.125V27.4219C124.562 27.4609 123.289 27.4609 122.164 27.4688ZM122.461 20.2656H131.055V18.8906H127.633V17.3125H125.898V18.8906H122.461V20.2656ZM124.93 23.5625C124.914 22.7422 125.672 22.2422 126.742 22.2344C127.844 22.2422 128.594 22.7422 128.586 23.5625C128.594 24.375 127.844 24.8516 126.742 24.8438C125.672 24.8516 124.914 24.375 124.93 23.5625ZM147.773 17.2812H146.023V25.5156H143.258V26.7344H146.023V27.9688H147.773V17.2812ZM135.867 23.625L136.086 25.0156C137.195 25.0156 138.453 25.0078 139.773 24.9531V27.5781H141.508V24.8594C142.703 24.7734 143.906 24.6484 145.07 24.4531L144.977 23.2031C141.977 23.5859 138.469 23.6094 135.867 23.625ZM136.945 20.2969C136.945 21.8125 138.383 22.7734 140.477 22.7812C142.531 22.7734 143.977 21.8125 143.992 20.2969C143.977 18.8047 142.531 17.7891 140.477 17.7969C138.383 17.7891 136.945 18.8047 136.945 20.2969ZM137.742 31.1094H148.102V29.7031H139.477V26.9375H137.742V31.1094ZM138.586 20.2969C138.586 19.5312 139.344 19.0703 140.477 19.0781C141.555 19.0703 142.328 19.5312 142.336 20.2969C142.328 21.0625 141.555 21.5078 140.477 21.5156C139.344 21.5078 138.586 21.0625 138.586 20.2969ZM165.742 17.2656H164.07V31.3906H165.742V17.2656ZM153.695 23.375C153.695 26.4922 154.898 28.4297 156.742 28.4219C157.938 28.4297 158.875 27.6328 159.391 26.25H161.242V30.7031H162.883V17.5156H161.242V20.5H159.391C158.867 19.125 157.938 18.3359 156.742 18.3438C154.898 18.3359 153.695 20.2656 153.695 23.375ZM155.289 23.375C155.273 21.1719 155.812 19.9766 156.742 19.9844C157.68 19.9766 158.258 21.1719 158.258 23.375C158.258 25.5859 157.68 26.7734 156.742 26.7656C155.812 26.7734 155.273 25.5859 155.289 23.375ZM159.742 21.9062H161.242V24.8281H159.75C159.812 24.375 159.852 23.8906 159.852 23.375C159.852 22.8516 159.812 22.3594 159.742 21.9062ZM180.445 19.2344H178.523V17.2656H176.789V25.6094H178.523V23.7188H180.445V22.2656H178.523V20.6406H180.445V19.2344ZM167.539 21.4688C167.531 23.4844 169.172 24.8828 171.352 24.8906C173.523 24.8828 175.148 23.4844 175.164 21.4688C175.148 19.4844 173.523 18.0625 171.352 18.0781C169.172 18.0625 167.531 19.4844 167.539 21.4688ZM169.117 27.625H176.789V31.3906H178.523V26.2188H169.117V27.625ZM169.242 21.4688C169.234 20.2891 170.133 19.5547 171.352 19.5469C172.555 19.5547 173.453 20.2891 173.461 21.4688C173.453 22.6719 172.555 23.4141 171.352 23.4062C170.133 23.4141 169.234 22.6719 169.242 21.4688ZM197.914 28.2656H192.32V25.0156H190.586V28.2656H185.008V29.6875H197.914V28.2656ZM185.57 24.2344L186.258 25.6094C188.609 25.1641 190.547 23.8594 191.453 22.0703C192.367 23.8359 194.328 25.1016 196.711 25.5312L197.398 24.1562C194.5 23.7188 192.406 21.8594 192.352 19.8281H196.805V18.4062H186.086V19.8281H190.523C190.477 21.8594 188.383 23.7656 185.57 24.2344ZM210.602 17.2656H208.867V31.3906H210.602V17.2656ZM198.898 27.4688L199.148 28.9062C201.688 28.9062 205.062 28.8672 208.164 28.3438L208.039 27.0469C206.859 27.2031 205.609 27.3047 204.367 27.3594V26.1172C205.953 25.8594 206.992 24.8984 206.992 23.5625C206.992 21.9688 205.555 20.9141 203.477 20.9062C201.422 20.9141 200.008 21.9688 200.008 23.5625C200.008 24.9062 201.047 25.875 202.633 26.125V27.4219C201.297 27.4609 200.023 27.4609 198.898 27.4688ZM199.195 20.2656H207.789V18.8906H204.367V17.3125H202.633V18.8906H199.195V20.2656ZM201.664 23.5625C201.648 22.7422 202.406 22.2422 203.477 22.2344C204.578 22.2422 205.328 22.7422 205.32 23.5625C205.328 24.375 204.578 24.8516 203.477 24.8438C202.406 24.8516 201.648 24.375 201.664 23.5625Z" fill="black"/>
<path d="M120.023 17.2656H118.273V31.4062H120.023V17.2656ZM109.023 28.0781H115.898V18.4219H114.18V21.9531H110.758V18.4219H109.023V28.0781ZM110.758 26.6562V23.3125H114.18V26.6562H110.758ZM133.867 17.2656H132.133V31.3906H133.867V17.2656ZM122.164 27.4688L122.414 28.9062C124.953 28.9062 128.328 28.8672 131.43 28.3438L131.305 27.0469C130.125 27.2031 128.875 27.3047 127.633 27.3594V26.1172C129.219 25.8594 130.258 24.8984 130.258 23.5625C130.258 21.9688 128.82 20.9141 126.742 20.9062C124.688 20.9141 123.273 21.9688 123.273 23.5625C123.273 24.9062 124.312 25.875 125.898 26.125V27.4219C124.562 27.4609 123.289 27.4609 122.164 27.4688ZM122.461 20.2656H131.055V18.8906H127.633V17.3125H125.898V18.8906H122.461V20.2656ZM124.93 23.5625C124.914 22.7422 125.672 22.2422 126.742 22.2344C127.844 22.2422 128.594 22.7422 128.586 23.5625C128.594 24.375 127.844 24.8516 126.742 24.8438C125.672 24.8516 124.914 24.375 124.93 23.5625ZM147.773 17.2812H146.023V25.5156H143.258V26.7344H146.023V27.9688H147.773V17.2812ZM135.867 23.625L136.086 25.0156C137.195 25.0156 138.453 25.0078 139.773 24.9531V27.5781H141.508V24.8594C142.703 24.7734 143.906 24.6484 145.07 24.4531L144.977 23.2031C141.977 23.5859 138.469 23.6094 135.867 23.625ZM136.945 20.2969C136.945 21.8125 138.383 22.7734 140.477 22.7812C142.531 22.7734 143.977 21.8125 143.992 20.2969C143.977 18.8047 142.531 17.7891 140.477 17.7969C138.383 17.7891 136.945 18.8047 136.945 20.2969ZM137.742 31.1094H148.102V29.7031H139.477V26.9375H137.742V31.1094ZM138.586 20.2969C138.586 19.5312 139.344 19.0703 140.477 19.0781C141.555 19.0703 142.328 19.5312 142.336 20.2969C142.328 21.0625 141.555 21.5078 140.477 21.5156C139.344 21.5078 138.586 21.0625 138.586 20.2969ZM165.742 17.2656H164.07V31.3906H165.742V17.2656ZM153.695 23.375C153.695 26.4922 154.898 28.4297 156.742 28.4219C157.938 28.4297 158.875 27.6328 159.391 26.25H161.242V30.7031H162.883V17.5156H161.242V20.5H159.391C158.867 19.125 157.938 18.3359 156.742 18.3438C154.898 18.3359 153.695 20.2656 153.695 23.375ZM155.289 23.375C155.273 21.1719 155.812 19.9766 156.742 19.9844C157.68 19.9766 158.258 21.1719 158.258 23.375C158.258 25.5859 157.68 26.7734 156.742 26.7656C155.812 26.7734 155.273 25.5859 155.289 23.375ZM159.742 21.9062H161.242V24.8281H159.75C159.812 24.375 159.852 23.8906 159.852 23.375C159.852 22.8516 159.812 22.3594 159.742 21.9062ZM180.445 19.2344H178.523V17.2656H176.789V25.6094H178.523V23.7188H180.445V22.2656H178.523V20.6406H180.445V19.2344ZM167.539 21.4688C167.531 23.4844 169.172 24.8828 171.352 24.8906C173.523 24.8828 175.148 23.4844 175.164 21.4688C175.148 19.4844 173.523 18.0625 171.352 18.0781C169.172 18.0625 167.531 19.4844 167.539 21.4688ZM169.117 27.625H176.789V31.3906H178.523V26.2188H169.117V27.625ZM169.242 21.4688C169.234 20.2891 170.133 19.5547 171.352 19.5469C172.555 19.5547 173.453 20.2891 173.461 21.4688C173.453 22.6719 172.555 23.4141 171.352 23.4062C170.133 23.4141 169.234 22.6719 169.242 21.4688ZM197.914 28.2656H192.32V25.0156H190.586V28.2656H185.008V29.6875H197.914V28.2656ZM185.57 24.2344L186.258 25.6094C188.609 25.1641 190.547 23.8594 191.453 22.0703C192.367 23.8359 194.328 25.1016 196.711 25.5312L197.398 24.1562C194.5 23.7188 192.406 21.8594 192.352 19.8281H196.805V18.4062H186.086V19.8281H190.523C190.477 21.8594 188.383 23.7656 185.57 24.2344ZM210.602 17.2656H208.867V31.3906H210.602V17.2656ZM198.898 27.4688L199.148 28.9062C201.688 28.9062 205.062 28.8672 208.164 28.3438L208.039 27.0469C206.859 27.2031 205.609 27.3047 204.367 27.3594V26.1172C205.953 25.8594 206.992 24.8984 206.992 23.5625C206.992 21.9688 205.555 20.9141 203.477 20.9062C201.422 20.9141 200.008 21.9688 200.008 23.5625C200.008 24.9062 201.047 25.875 202.633 26.125V27.4219C201.297 27.4609 200.023 27.4609 198.898 27.4688ZM199.195 20.2656H207.789V18.8906H204.367V17.3125H202.633V18.8906H199.195V20.2656ZM201.664 23.5625C201.648 22.7422 202.406 22.2422 203.477 22.2344C204.578 22.2422 205.328 22.7422 205.32 23.5625C205.328 24.375 204.578 24.8516 203.477 24.8438C202.406 24.8516 201.648 24.375 201.664 23.5625Z" fill="black" fill-opacity="0.2"/>
</svg>
