<svg width="20" height="14" viewBox="0 0 20 14" fill="none" xmlns="http://www.w3.org/2000/svg">
<path d="M19.5802 2.18109C19.3472 1.32357 18.6762 0.643142 17.8189 0.419441C16.2625 -1.42075e-07 10 0 10 0C10 0 3.73746 -1.42075e-07 2.18114 0.419441C1.32377 0.652463 0.643466 1.32357 0.419803 2.18109C0.130907 3.77497 -0.00888242 5.38748 0.00043684 7C-0.00888242 8.61252 0.130907 10.225 0.419803 11.8189C0.652785 12.6764 1.32377 13.3569 2.18114 13.5806C3.73746 14 10 14 10 14C10 14 16.2625 14 17.8189 13.5806C18.6762 13.3475 19.3565 12.6764 19.5802 11.8189C19.8691 10.225 20.0089 8.61252 19.9996 7C20.0089 5.38748 19.8691 3.77497 19.5802 2.18109ZM7.98704 10.0013V3.99867L13.1872 7L7.98704 10.0013Z" fill="#AAAAAA"/>
</svg>
