<svg width="64" height="64" viewBox="0 0 64 64" fill="none" xmlns="http://www.w3.org/2000/svg">
<rect x="1.25" y="1.25" width="61.5" height="61.5" rx="30.75" fill="white"/>
<path d="M33.3171 41.2065V26.4946L39.7445 32.922C40.2582 33.4356 41.1011 33.4356 41.6148 32.922C42.1284 32.4083 42.1284 31.5785 41.6148 31.0649L32.9351 22.3852C32.4215 21.8716 31.5917 21.8716 31.078 22.3852L22.3852 31.0517C21.8716 31.5654 21.8716 32.3951 22.3852 32.9088C22.8989 33.4225 23.7287 33.4225 24.2423 32.9088L30.6829 26.4946V41.2065C30.6829 41.9309 31.2756 42.5235 32 42.5235C32.7244 42.5235 33.3171 41.9309 33.3171 41.2065Z" fill="#333333"/>
<rect x="1.25" y="1.25" width="61.5" height="61.5" rx="30.75" stroke="#E6E6E6" stroke-width="1.5"/>
</svg>
