<svg width="18" height="18" viewBox="0 0 18 18" fill="none" xmlns="http://www.w3.org/2000/svg">
<path fill-rule="evenodd" clip-rule="evenodd" d="M6.79289 4.79289C7.18342 4.40237 7.81658 4.40237 8.20711 4.79289L11.7071 8.29289C12.0976 8.68342 12.0976 9.31658 11.7071 9.70711L8.20711 13.2071C7.81658 13.5976 7.18342 13.5976 6.79289 13.2071C6.40237 12.8166 6.40237 12.1834 6.79289 11.7929L8.58579 10H1C0.447715 10 0 9.55228 0 9C0 8.44772 0.447715 8 1 8H8.58579L6.79289 6.20711C6.40237 5.81658 6.40237 5.18342 6.79289 4.79289Z" fill="white"/>
<path d="M10 0C9.44772 0 9 0.447715 9 1C9 1.55228 9.44772 2 10 2H16V16H10C9.44772 16 9 16.4477 9 17C9 17.5523 9.44772 18 10 18H16C17.1046 18 18 17.1046 18 16V2C18 0.895431 17.1046 0 16 0H10Z" fill="white"/>
</svg>
