<svg width="18" height="18" viewBox="0 0 18 18" fill="none" xmlns="http://www.w3.org/2000/svg">
<path d="M2 0C0.895431 0 0 0.89543 0 2V16C0 17.1046 0.89543 18 2 18H8C8.55228 18 9 17.5523 9 17C9 16.4477 8.55228 16 8 16H2V2H8C8.55228 2 9 1.55228 9 1C9 0.447715 8.55228 0 8 0H2Z" fill="#4286F4"/>
<path fill-rule="evenodd" clip-rule="evenodd" d="M12.7929 4.79289C13.1834 4.40237 13.8166 4.40237 14.2071 4.79289L17.7071 8.29289C18.0976 8.68342 18.0976 9.31658 17.7071 9.70711L14.2071 13.2071C13.8166 13.5976 13.1834 13.5976 12.7929 13.2071C12.4024 12.8166 12.4024 12.1834 12.7929 11.7929L14.5858 10H7C6.44772 10 6 9.55228 6 9C6 8.44772 6.44772 8 7 8H14.5858L12.7929 6.20711C12.4024 5.81658 12.4024 5.18342 12.7929 4.79289Z" fill="#4286F4"/>
</svg>
