<svg width="19" height="20" viewBox="0 0 19 20" fill="none" xmlns="http://www.w3.org/2000/svg">
<path fill-rule="evenodd" clip-rule="evenodd" d="M0 1C0 0.447715 0.447715 0 1 0H3C3.4687 0 3.87451 0.325532 3.97619 0.78307L4.24662 2H18C18.2899 2 18.5655 2.1258 18.7555 2.3448C18.9454 2.5638 19.0309 2.85444 18.99 3.14142L17.99 10.1414C17.9196 10.6341 17.4977 11 17 11H5.63188L5.88027 13H17C17.5523 13 18 13.4477 18 14C18 14.5523 17.5523 15 17 15H4.99678C4.49216 15 4.0666 14.624 4.00441 14.1232L3.50923 10.1362L2.46077 3.18324L2.19783 2H1C0.447715 2 0 1.55228 0 1ZM4.60654 4L5.36051 9H16.1327L16.847 4H4.60654Z" fill="#4286F4"/>
<path d="M8 18C8 19.1046 7.10457 20 6 20C4.89543 20 4 19.1046 4 18C4 16.8954 4.89543 16 6 16C7.10457 16 8 16.8954 8 18Z" fill="#4286F4"/>
<path d="M18 18C18 19.1046 17.1046 20 16 20C14.8954 20 14 19.1046 14 18C14 16.8954 14.8954 16 16 16C17.1046 16 18 16.8954 18 18Z" fill="#4286F4"/>
</svg>
