<svg width="18" height="20" viewBox="0 0 18 20" fill="none" xmlns="http://www.w3.org/2000/svg">
<path fill-rule="evenodd" clip-rule="evenodd" d="M9 2C6.79086 2 5 3.79086 5 6C5 8.20914 6.79086 10 9 10C11.2091 10 13 8.20914 13 6C13 3.79086 11.2091 2 9 2ZM12.643 10.7678C14.0759 9.67134 15 7.94359 15 6C15 2.68629 12.3137 0 9 0C5.68629 0 3 2.68629 3 6C3 7.94359 3.92413 9.67134 5.35697 10.7678C2.20134 12.1664 0 15.3261 0 19C0 19.5523 0.447715 20 1 20C1.55228 20 2 19.5523 2 19C2 15.134 5.13401 12 9 12C12.866 12 16 15.134 16 19C16 19.5523 16.4477 20 17 20C17.5523 20 18 19.5523 18 19C18 15.3261 15.7987 12.1664 12.643 10.7678Z" fill="white"/>
</svg>
