<svg width="40" height="40" viewBox="0 0 40 40" fill="none" xmlns="http://www.w3.org/2000/svg">
<g opacity="0.5">
<path d="M40 20C40 31.0457 31.0457 40 20 40C8.9543 40 0 31.0457 0 20C0 8.9543 8.9543 0 20 0C31.0457 0 40 8.9543 40 20Z" fill="black"/>
<path d="M40 20C40 31.0457 31.0457 40 20 40C8.9543 40 0 31.0457 0 20C0 8.9543 8.9543 0 20 0C31.0457 0 40 8.9543 40 20Z" fill="black" fill-opacity="0.2"/>
<path fill-rule="evenodd" clip-rule="evenodd" d="M17.2929 13.2929C17.6834 12.9024 18.3166 12.9024 18.7071 13.2929L24.7071 19.2929C25.0976 19.6834 25.0976 20.3166 24.7071 20.7071L18.7071 26.7071C18.3166 27.0976 17.6834 27.0976 17.2929 26.7071C16.9024 26.3166 16.9024 25.6834 17.2929 25.2929L22.5858 20L17.2929 14.7071C16.9024 14.3166 16.9024 13.6834 17.2929 13.2929Z" fill="white"/>
</g>
</svg>
