<svg width="68" height="30" viewBox="0 0 68 30" fill="none" xmlns="http://www.w3.org/2000/svg">
<g opacity="0.3">
<path d="M0 15C0 6.71573 6.71573 0 15 0H53C61.2843 0 68 6.71573 68 15C68 23.2843 61.2843 30 53 30H15C6.71573 30 0 23.2843 0 15Z" fill="black"/>
<path d="M0 15C0 6.71573 6.71573 0 15 0H53C61.2843 0 68 6.71573 68 15C68 23.2843 61.2843 30 53 30H15C6.71573 30 0 23.2843 0 15Z" fill="black" fill-opacity="0.2"/>
<path d="M12.6348 10.1016H11.1582L8.69727 11.7148V13.1504L11.0625 11.6055H11.1172V20H12.6348V10.1016Z" fill="white"/>
<path d="M18.5957 20.1367C20.8857 20.1367 22.2256 18.291 22.2324 15.0508C22.2256 11.8311 20.8652 9.96484 18.5957 9.96484C16.3193 9.96484 14.959 11.8311 14.959 15.0508C14.959 18.291 16.3057 20.1367 18.5957 20.1367ZM16.4629 15.0508C16.4629 12.5898 17.2627 11.2432 18.5957 11.2363C19.9219 11.2432 20.7285 12.5898 20.7285 15.0508C20.7285 17.5186 19.9287 18.8379 18.5957 18.8379C17.2559 18.8379 16.4561 17.5186 16.4629 15.0508Z" fill="white"/>
<path d="M35.6621 9.63672H34.3633L31.1777 21.4902H32.4766L35.6621 9.63672Z" fill="white"/>
<path d="M48.6348 10.1016H47.1582L44.6973 11.7148V13.1504L47.0625 11.6055H47.1172V20H48.6348V10.1016Z" fill="white"/>
<path d="M54.5957 20.1367C56.8857 20.1367 58.2256 18.291 58.2324 15.0508C58.2256 11.8311 56.8652 9.96484 54.5957 9.96484C52.3193 9.96484 50.959 11.8311 50.959 15.0508C50.959 18.291 52.3057 20.1367 54.5957 20.1367ZM52.4629 15.0508C52.4629 12.5898 53.2627 11.2432 54.5957 11.2363C55.9219 11.2432 56.7285 12.5898 56.7285 15.0508C56.7285 17.5186 55.9287 18.8379 54.5957 18.8379C53.2559 18.8379 52.4561 17.5186 52.4629 15.0508Z" fill="white"/>
</g>
</svg>
