<svg width="64" height="64" viewBox="0 0 64 64" fill="none" xmlns="http://www.w3.org/2000/svg">
<g filter="url(#filter0_d_2625_17921)">
<path d="M60 28C60 43.464 47.464 56 32 56C16.536 56 4 43.464 4 28C4 12.536 16.536 0 32 0C47.464 0 60 12.536 60 28Z" fill="white"/>
<path fill-rule="evenodd" clip-rule="evenodd" d="M31.2929 23.2929C31.6834 22.9024 32.3166 22.9024 32.7071 23.2929L38.7071 29.2929C39.0976 29.6834 39.0976 30.3166 38.7071 30.7071C38.3166 31.0976 37.6834 31.0976 37.2929 30.7071L32 25.4142L26.7071 30.7071C26.3166 31.0976 25.6834 31.0976 25.2929 30.7071C24.9024 30.3166 24.9024 29.6834 25.2929 29.2929L31.2929 23.2929Z" fill="black"/>
<path fill-rule="evenodd" clip-rule="evenodd" d="M31.2929 23.2929C31.6834 22.9024 32.3166 22.9024 32.7071 23.2929L38.7071 29.2929C39.0976 29.6834 39.0976 30.3166 38.7071 30.7071C38.3166 31.0976 37.6834 31.0976 37.2929 30.7071L32 25.4142L26.7071 30.7071C26.3166 31.0976 25.6834 31.0976 25.2929 30.7071C24.9024 30.3166 24.9024 29.6834 25.2929 29.2929L31.2929 23.2929Z" fill="black" fill-opacity="0.2"/>
</g>
<defs>
<filter id="filter0_d_2625_17921" x="0" y="0" width="64" height="64" filterUnits="userSpaceOnUse" color-interpolation-filters="sRGB">
<feFlood flood-opacity="0" result="BackgroundImageFix"/>
<feColorMatrix in="SourceAlpha" type="matrix" values="0 0 0 0 0 0 0 0 0 0 0 0 0 0 0 0 0 0 127 0" result="hardAlpha"/>
<feOffset dy="4"/>
<feGaussianBlur stdDeviation="2"/>
<feComposite in2="hardAlpha" operator="out"/>
<feColorMatrix type="matrix" values="0 0 0 0 0 0 0 0 0 0 0 0 0 0 0 0 0 0 0.05 0"/>
<feBlend mode="normal" in2="BackgroundImageFix" result="effect1_dropShadow_2625_17921"/>
<feBlend mode="normal" in="SourceGraphic" in2="effect1_dropShadow_2625_17921" result="shape"/>
</filter>
</defs>
</svg>
