<svg width="20" height="20" viewBox="0 0 20 20" fill="none" xmlns="http://www.w3.org/2000/svg">
<path fill-rule="evenodd" clip-rule="evenodd" d="M8.5 2C4.91015 2 2 4.91015 2 8.5C2 12.0899 4.91015 15 8.5 15C10.2952 15 11.9188 14.2736 13.0962 13.0962C14.2736 11.9188 15 10.2952 15 8.5C15 4.91015 12.0899 2 8.5 2ZM0 8.5C0 3.80558 3.80558 0 8.5 0C13.1944 0 17 3.80558 17 8.5C17 10.4865 16.3176 12.3149 15.176 13.7618L19.7071 18.2929C20.0976 18.6834 20.0976 19.3166 19.7071 19.7071C19.3166 20.0976 18.6834 20.0976 18.2929 19.7071L13.7618 15.176C12.3149 16.3176 10.4865 17 8.5 17C3.80558 17 0 13.1944 0 8.5Z" fill="#AAAAAA"/>
</svg>
