<svg width="147" height="24" viewBox="0 0 147 24" fill="none" xmlns="http://www.w3.org/2000/svg">
<path d="M29.5324 5.72998C30.585 6.31998 31.3969 7.12999 31.9884 8.17999C32.5798 9.21999 32.8705 10.4 32.8705 11.71C32.8705 13.02 32.5798 14.19 31.9884 15.24C31.3969 16.28 30.5749 17.1 29.5324 17.69C28.4798 18.28 27.2969 18.57 25.9837 18.57C24.6705 18.57 23.4876 18.28 22.435 17.69C21.3824 17.1 20.5604 16.29 19.979 15.24C19.3875 14.2 19.0968 13.02 19.0968 11.71C19.0968 10.4 19.3875 9.21999 19.979 8.17999C20.5704 7.13999 21.3924 6.31998 22.435 5.72998C23.4876 5.13998 24.6705 4.84998 25.9837 4.84998C27.2969 4.84998 28.4798 5.14998 29.5324 5.72998ZM23.7582 9.20999C23.1868 9.85999 22.9061 10.69 22.9061 11.7C22.9061 12.71 23.1868 13.54 23.7582 14.19C24.3296 14.84 25.0714 15.16 25.9837 15.16C26.8959 15.16 27.6377 14.84 28.2091 14.19C28.7805 13.54 29.0612 12.71 29.0612 11.7C29.0612 10.69 28.7805 9.85999 28.2091 9.20999C27.6377 8.55999 26.8959 8.23999 25.9837 8.23999C25.0714 8.23999 24.3196 8.55999 23.7582 9.20999Z" fill="white"/>
<path d="M54.6338 3.64004H48.7594V18.2501H44.7296V3.64004H38.8552V0.0400391H54.6338V3.64004Z" fill="white"/>
<path d="M62.9743 5.72998C64.0268 6.31998 64.8388 7.12999 65.4303 8.17999C66.0217 9.21999 66.3124 10.4 66.3124 11.71C66.3124 13.02 66.0217 14.19 65.4303 15.24C64.8388 16.28 64.0168 17.1 62.9743 17.69C61.9217 18.28 60.7488 18.57 59.4256 18.57C58.1023 18.57 56.9295 18.28 55.8769 17.69C54.8243 17.1 54.0023 16.29 53.4209 15.24C52.8294 14.2 52.5387 13.02 52.5387 11.71C52.5387 10.4 52.8394 9.21999 53.4209 8.17999C54.0123 7.13999 54.8343 6.31998 55.8769 5.72998C56.9295 5.13998 58.1123 4.84998 59.4256 4.84998C60.7388 4.84998 61.9217 5.14998 62.9743 5.72998ZM57.2001 9.20999C56.6287 9.85999 56.348 10.69 56.348 11.7C56.348 12.71 56.6287 13.54 57.2001 14.19C57.7715 14.84 58.5133 15.16 59.4256 15.16C60.3378 15.16 61.0796 14.84 61.651 14.19C62.2224 13.54 62.5031 12.71 62.5031 11.7C62.5031 10.69 62.2224 9.85999 61.651 9.20999C61.0796 8.55999 60.3378 8.23999 59.4256 8.23999C58.5133 8.23999 57.7615 8.55999 57.2001 9.20999Z" fill="white"/>
<path d="M71.6254 23.37C70.7132 22.95 69.9914 22.38 69.4601 21.66C68.9288 20.94 68.588 20.15 68.4376 19.27H72.4274C72.6479 20.19 73.4499 20.65 74.8433 20.65C75.6753 20.65 76.337 20.4 76.8382 19.91C77.3394 19.42 77.59 18.76 77.59 17.95V16.57C76.778 17.67 75.535 18.22 73.8709 18.22C72.6479 18.22 71.5553 17.94 70.5929 17.37C69.6305 16.8 68.8887 16.02 68.3574 15C67.8261 13.99 67.5555 12.85 67.5555 11.58C67.5555 10.31 67.8261 9.12998 68.3574 8.10998C68.8887 7.08998 69.6305 6.28997 70.5929 5.70997C71.5553 5.12997 72.6479 4.83997 73.8709 4.83997C75.545 4.83997 76.778 5.38997 77.59 6.48997V4.83997H81.5297V17.99C81.5297 19.15 81.239 20.19 80.6676 21.11C80.0962 22.02 79.2942 22.74 78.2817 23.24C77.2692 23.75 76.1164 24 74.8333 24C73.5501 24 72.5176 23.79 71.6054 23.36L71.6254 23.37ZM76.7981 14C77.3695 13.37 77.6602 12.57 77.6602 11.59C77.6602 10.61 77.3695 9.79998 76.7981 9.17998C76.2267 8.54998 75.4548 8.23998 74.4924 8.23998C73.5301 8.23998 72.8183 8.54998 72.257 9.17998C71.6956 9.79998 71.4149 10.61 71.4149 11.59C71.4149 12.57 71.6956 13.38 72.257 14C72.8183 14.62 73.5602 14.94 74.4924 14.94C75.4247 14.94 76.2167 14.63 76.7981 14Z" fill="white"/>
<path d="M86.7224 17.67C85.6999 17.08 84.8979 16.27 84.3165 15.22C83.7351 14.18 83.4544 13 83.4544 11.69C83.4544 10.38 83.7451 9.19997 84.3165 8.15997C84.8879 7.11997 85.6899 6.29997 86.7224 5.70996C87.7449 5.11996 88.9077 4.82996 90.2109 4.82996C91.5141 4.82996 92.677 5.12996 93.6995 5.70996C94.722 6.29997 95.5239 7.10997 96.1054 8.15997C96.6768 9.19997 96.9675 10.38 96.9675 11.69C96.9675 12.12 96.9374 12.55 96.8773 12.96H87.374C87.5243 13.72 87.8451 14.31 88.3464 14.72C88.8476 15.14 89.4691 15.35 90.2109 15.35C90.7723 15.35 91.2735 15.26 91.7046 15.07C92.1356 14.89 92.4364 14.63 92.6068 14.32H96.5765C96.356 15.15 95.945 15.89 95.3335 16.52C94.732 17.15 93.9802 17.65 93.098 18C92.2058 18.36 91.2535 18.54 90.2209 18.54C88.9178 18.54 87.7549 18.25 86.7324 17.66L86.7224 17.67ZM93.118 10.4C92.9576 9.60997 92.6268 9.00997 92.1256 8.59997C91.6244 8.18997 90.9928 7.98997 90.2209 7.98997C89.4491 7.98997 88.8275 8.18997 88.3363 8.59997C87.8451 9.00997 87.5243 9.60997 87.364 10.4H93.1281H93.118Z" fill="white"/>
<path d="M108.004 0.0400391H111.954V6.50005C112.766 5.40005 113.979 4.85005 115.593 4.85005C116.596 4.85005 117.488 5.08005 118.25 5.55005C119.021 6.02005 119.613 6.69005 120.034 7.57005C120.455 8.45005 120.666 9.48005 120.666 10.6701V18.2401H116.716V11.3401C116.716 10.3401 116.515 9.58005 116.124 9.05005C115.733 8.52005 115.172 8.26005 114.43 8.26005C113.688 8.26005 113.057 8.55005 112.616 9.13005C112.175 9.71005 111.954 10.5101 111.954 11.5201V18.2401H108.004V0.0400391Z" fill="white"/>
<path d="M125.527 17.67C124.505 17.08 123.703 16.27 123.121 15.22C122.54 14.18 122.259 13 122.259 11.69C122.259 10.38 122.55 9.19997 123.121 8.15997C123.693 7.11997 124.495 6.29997 125.527 5.70996C126.55 5.11996 127.713 4.82996 129.016 4.82996C130.319 4.82996 131.482 5.12996 132.504 5.70996C133.527 6.29997 134.329 7.10997 134.91 8.15997C135.482 9.19997 135.772 10.38 135.772 11.69C135.772 12.12 135.742 12.55 135.682 12.96H126.179C126.329 13.72 126.65 14.31 127.151 14.72C127.653 15.14 128.274 15.35 129.016 15.35C129.577 15.35 130.079 15.26 130.51 15.07C130.941 14.89 131.241 14.63 131.412 14.32H135.382C135.161 15.15 134.75 15.89 134.138 16.52C133.537 17.15 132.785 17.65 131.903 18C131.011 18.36 130.058 18.54 129.026 18.54C127.723 18.54 126.56 18.25 125.537 17.66L125.527 17.67ZM131.923 10.4C131.763 9.60997 131.432 9.00997 130.931 8.59997C130.429 8.18997 129.798 7.98997 129.026 7.98997C128.254 7.98997 127.633 8.18997 127.141 8.59997C126.65 9.00997 126.329 9.60997 126.169 10.4H131.933H131.923Z" fill="white"/>
<path d="M6.60614 11.38H13.7737V18.56L17.4226 14.97V7.77003H10.1548L6.60614 11.38Z" fill="white"/>
<path d="M12.0194 18.55H9.30278C4.17021 18.55 0 14.39 0 9.28001C0 4.17001 4.17021 0 9.30278 0H17.4227V3.60001H9.30278C6.1651 3.60001 3.60884 6.15001 3.60884 9.28001C3.60884 12.41 6.1651 14.96 9.30278 14.96H12.0194V18.56V18.55Z" fill="white"/>
<path d="M103.995 4.85003V1.27002H100.055V4.85003H97.168V8.27003H100.055V18.24H103.995V8.27003H106.882V4.85003H103.995Z" fill="white"/>
<path d="M146.99 5.06998C146.559 4.91998 145.988 4.84998 145.286 4.84998C143.672 4.84998 142.469 5.39998 141.657 6.49998V4.84998H137.707V18.24H141.657V11.54C141.657 10.54 141.958 9.75999 142.559 9.18999C143.161 8.61999 143.983 8.33999 145.025 8.33999C145.787 8.33999 146.449 8.47999 147 8.76999V5.05998L146.99 5.06998Z" fill="white"/>
</svg>
