<svg width="20" height="20" viewBox="0 0 20 20" fill="none" xmlns="http://www.w3.org/2000/svg">
<path d="M19 0H1C0.447715 0 0 0.447715 0 1V19C0 19.5523 0.447715 20 1 20H19C19.5523 20 20 19.5523 20 19V1C20 0.447715 19.5523 0 19 0Z" fill="#AAAAAA"/>
<path d="M15.65 1.7H4.05C2.57 1.7 1.37 2.91 1.37 4.39V10.77C1.37 12.25 2.57 13.46 4.05 13.46H8.05L9.41 15.68C9.41 15.68 9.42 15.71 9.45 15.74C9.53 15.88 9.68 15.97 9.85 15.97C10.02 15.97 10.16 15.88 10.24 15.74C10.27 15.7 10.29 15.67 10.29 15.67L11.65 13.45H15.65C17.13 13.45 18.33 12.25 18.33 10.76V4.39C18.33 2.91 17.13 1.7 15.65 1.7Z" fill="white"/>
<path d="M5.14 6.38C5.14 6.38 4.68 6.38 4.26 6.79V5.14H3.22V9.47H4.27V9.13C4.27 9.13 4.52 9.58 5.14 9.58C5.14 9.58 6.6 9.52 6.6 7.96C6.6 7.96 6.55 6.38 5.14 6.38ZM4.91 8.66C4.54 8.66 4.24 8.36 4.24 7.99C4.24 7.62 4.54 7.32 4.91 7.32C5.28 7.32 5.58 7.62 5.58 7.99C5.58 8.36 5.28 8.66 4.91 8.66Z" fill="#AAAAAA"/>
<path d="M6.93 5.04V6.04C6.93 6.04 7.4 6.02 7.4 6.9V9.46H8.4V6.66C8.4 6.66 8.44 5.03 6.93 5.03" fill="#AAAAAA"/>
<path d="M10.86 6.39C10.86 6.39 9.14 6.39 9.14 7.99C9.14 7.99 9.09 9.57 10.86 9.57C10.86 9.57 12.62 9.57 12.62 7.99C12.62 7.99 12.68 6.39 10.86 6.39ZM10.86 8.66C10.49 8.66 10.19 8.36 10.19 7.99C10.19 7.62 10.49 7.32 10.86 7.32C11.23 7.32 11.53 7.62 11.53 7.99C11.53 8.36 11.23 8.66 10.86 8.66Z" fill="#AAAAAA"/>
<path d="M15.48 6.79C15.48 6.79 15.18 6.39 14.61 6.39C14.61 6.39 13.14 6.33 13.14 7.98C13.14 7.98 13.12 9.52 14.57 9.52C14.57 9.52 15.16 9.54 15.48 9.12V9.36C15.48 9.36 15.55 10.12 14.82 10.12H14.57V11.04H14.97C14.97 11.04 16.49 11.06 16.49 9.42V6.49H15.48V6.79ZM14.86 8.67C14.49 8.67 14.19 8.37 14.19 8C14.19 7.63 14.49 7.33 14.86 7.33C15.23 7.33 15.53 7.63 15.53 8C15.53 8.37 15.23 8.67 14.86 8.67Z" fill="#AAAAAA"/>
</svg>
