<svg width="20" height="20" viewBox="0 0 20 20" fill="none" xmlns="http://www.w3.org/2000/svg">
<path d="M19.1667 0H0.833333C0.373096 0 0 0.373096 0 0.833333V19.1667C0 19.6269 0.373096 20 0.833333 20H19.1667C19.6269 20 20 19.6269 20 19.1667V0.833333C20 0.373096 19.6269 0 19.1667 0Z" fill="#AAAAAA"/>
<path d="M10 5.79167C9.50833 5.79167 9.03333 5.85 8.575 5.96667V4.90833C8.575 3.71667 7.60833 2.75833 6.425 2.75833C5.24167 2.75833 4.275 3.725 4.275 4.90833V11.5083C4.275 14.6667 6.83333 17.2333 10 17.2333C13.1667 17.2333 15.725 14.675 15.725 11.5083C15.725 8.34167 13.1667 5.78333 10 5.78333V5.79167ZM10 16.375C7.31667 16.375 5.14167 14.2 5.14167 11.5167V4.91667C5.14167 4.2 5.71667 3.625 6.43333 3.625C7.15 3.625 7.725 4.2 7.725 4.91667V11.5167C7.725 12.775 8.75 13.8 10.0083 13.8C11.2667 13.8 12.2917 12.775 12.2917 11.5167C12.2917 10.2583 11.2667 9.23333 10.0083 9.23333C9.475 9.23333 8.975 9.41667 8.58333 9.73333V8.71667C9.00833 8.5 9.49167 8.375 10.0083 8.375C11.7417 8.375 13.15 9.78333 13.15 11.5167C13.15 13.25 11.7417 14.6583 10.0083 14.6583C8.275 14.6583 6.86667 13.25 6.86667 11.5167V4.91667C6.86667 4.675 6.675 4.48333 6.43333 4.48333C6.19167 4.48333 6 4.675 6 4.91667V11.5167C6 13.725 7.79167 15.5167 10 15.5167C12.2083 15.5167 14 13.725 14 11.5167C14 9.30833 12.2083 7.51667 10 7.51667C9.5 7.51667 9.01667 7.60833 8.575 7.775V6.86667C9.025 6.73333 9.5 6.65833 10 6.65833C12.6833 6.65833 14.8583 8.83333 14.8583 11.5167C14.8583 14.2 12.6833 16.375 10 16.375ZM8.575 11.5167C8.575 10.7333 9.20833 10.0917 10 10.0917C10.7917 10.0917 11.425 10.725 11.425 11.5167C11.425 12.3083 10.7917 12.9417 10 12.9417C9.20833 12.9417 8.575 12.3083 8.575 11.5167Z" fill="white"/>
</svg>
