<svg width="100" height="100" viewBox="0 0 100 100" fill="none" xmlns="http://www.w3.org/2000/svg">
<rect width="100" height="100" rx="50" fill="#AAAAAA"/>
<rect x="64" y="64" width="36" height="36" rx="18" fill="#CCCCCC"/>
<g clip-path="url(#clip0_1075_5805)">
<path d="M82 85C83.6569 85 85 83.6569 85 82C85 80.3431 83.6569 79 82 79C80.3431 79 79 80.3431 79 82C79 83.6569 80.3431 85 82 85Z" fill="white"/>
<path d="M90 74H86.83L85.59 72.65C85.22 72.24 84.68 72 84.12 72H79.88C79.32 72 78.78 72.24 78.4 72.65L77.17 74H74C72.9 74 72 74.9 72 76V88C72 89.1 72.9 90 74 90H90C91.1 90 92 89.1 92 88V76C92 74.9 91.1 74 90 74ZM82 87C79.24 87 77 84.76 77 82C77 79.24 79.24 77 82 77C84.76 77 87 79.24 87 82C87 84.76 84.76 87 82 87Z" fill="white"/>
</g>
<defs>
<clipPath id="clip0_1075_5805">
<rect width="24" height="24" fill="white" transform="translate(70 70)"/>
</clipPath>
</defs>
</svg>
