<svg width="28" height="26" viewBox="0 0 28 26" fill="none" xmlns="http://www.w3.org/2000/svg">
<path d="M13.995 0C6.26776 0 0 5.00285 0 11.1882C0 15.2107 2.65905 18.7379 6.63763 20.7088C6.34773 21.8104 5.57801 24.711 5.42806 25.3276C5.23813 26.0957 5.70796 26.0856 6.01785 25.8834C6.25777 25.7217 9.85648 23.2456 11.4059 22.1844C12.2456 22.3157 13.1153 22.3764 14.005 22.3764C21.7322 22.3764 28 17.3735 28 11.1882C28 5.00285 21.7222 0 13.995 0ZM7.16744 14.0686C7.16744 14.7458 5.66798 14.7357 5.66798 14.0686C5.66798 13.1388 5.66798 9.13652 5.66798 9.13652H4.22849C3.38879 9.13652 3.37879 7.74178 4.22849 7.74178C4.22849 7.74178 7.59729 7.7721 8.60693 7.7721C9.5066 7.7721 9.49661 9.19716 8.60693 9.19716C7.65727 9.19716 7.17744 9.19716 7.17744 9.19716V14.0888L7.16744 14.0686ZM12.6655 14.2404C12.3156 13.3106 12.4056 13.2601 12.4056 13.2601H9.76651L9.47661 14.2809C9.16673 14.9984 7.8472 14.4122 8.14709 13.6947C8.57694 12.7042 9.85648 8.97481 10.2064 8.18648C10.3463 7.87317 10.6762 7.75189 11.0161 7.75189C11.4259 7.75189 11.8458 7.93381 11.9657 8.18648C12.2256 8.74235 13.6251 12.6234 14.025 13.7048C14.3049 14.4628 12.9354 14.9883 12.6555 14.2303L12.6655 14.2404ZM18.0136 14.5841C17.3338 14.5841 15.8144 14.5841 15.1246 14.5841C14.4348 14.5841 14.5548 13.7755 14.5548 13.7755C14.5548 13.7755 14.5548 9.69239 14.5548 8.42904C14.5548 7.98435 14.9447 7.762 15.3345 7.762C15.7244 7.762 16.1142 7.98435 16.1142 8.42904C16.1142 9.34876 16.1142 13.1186 16.1142 13.1186C16.1142 13.1186 17.3538 13.1186 18.0236 13.1186C18.6933 13.1186 18.7033 14.574 18.0236 14.574L18.0136 14.5841ZM22.6619 14.4729L20.7626 11.8552L20.3327 12.209C20.3327 12.209 20.3327 13.5026 20.3327 14.1899C20.3327 14.7761 18.8533 14.7761 18.8533 14.1899C18.8533 13.816 18.8833 8.79289 18.8733 8.23701C18.8733 7.93381 19.2531 7.7721 19.633 7.7721C19.9929 7.7721 20.3327 7.9136 20.3427 8.19659C20.3627 8.9546 20.3427 10.3089 20.3427 10.3089C20.3427 10.3089 22.482 8.13595 22.7919 7.83274C23.1017 7.51943 24.0814 8.5099 23.7715 8.82321C23.2317 9.36897 21.8622 10.8648 21.8622 10.8648L23.8815 13.5532C24.2613 14.0686 23.0618 14.9883 22.6719 14.483L22.6619 14.4729Z" fill="#381E1F"/>
<path d="M10.2563 11.926H11.9257L11.126 9.38918L10.2563 11.926Z" fill="#381E1F"/>
<path d="M8.60693 7.762C7.59729 7.762 4.22849 7.73168 4.22849 7.73168C3.37879 7.73168 3.38879 9.12641 4.22849 9.12641H5.66798C5.66798 9.12641 5.66798 13.1287 5.66798 14.0585C5.66798 14.7357 7.16744 14.7458 7.16744 14.0585V9.16684C7.16744 9.16684 7.65727 9.16684 8.60693 9.16684C9.5066 9.16684 9.5066 7.74178 8.60693 7.74178V7.762Z" fill="#F9E000"/>
<path d="M11.9857 8.19659C11.8658 7.94392 11.4459 7.762 11.0361 7.762C10.6962 7.762 10.3663 7.88328 10.2263 8.19659C9.87647 8.98491 8.58693 12.7143 8.16708 13.7048C7.85719 14.4224 9.18672 14.9984 9.49661 14.291L9.7865 13.2702H12.4256C12.4256 13.2702 12.3356 13.3106 12.6855 14.2505C12.9654 15.0085 14.3349 14.483 14.055 13.725C13.6551 12.6436 12.2456 8.75246 11.9957 8.20669L11.9857 8.19659ZM10.2563 11.926L11.126 9.38918L11.9257 11.926H10.2563Z" fill="#F9E000"/>
<path d="M18.0136 13.1287C17.3338 13.1287 16.1042 13.1287 16.1042 13.1287C16.1042 13.1287 16.1042 9.34876 16.1042 8.43915C16.1042 7.99445 15.7144 7.7721 15.3245 7.7721C14.9347 7.7721 14.5448 7.99445 14.5448 8.43915C14.5448 9.7025 14.5448 13.7856 14.5448 13.7856C14.5448 13.7856 14.4248 14.5942 15.1146 14.5942C15.8044 14.5942 17.3338 14.5942 18.0036 14.5942C18.6733 14.5942 18.6733 13.1388 18.0036 13.1388L18.0136 13.1287Z" fill="#F9E000"/>
<path d="M21.8622 10.8547C21.8622 10.8547 23.2317 9.35887 23.7715 8.8131C24.0814 8.49979 23.1117 7.49922 22.7919 7.82264C22.482 8.12584 20.3427 10.2988 20.3427 10.2988C20.3427 10.2988 20.3627 8.93438 20.3427 8.18648C20.3427 7.90349 19.9929 7.762 19.633 7.762C19.2531 7.762 18.8633 7.9237 18.8733 8.22691C18.8933 8.78278 18.8533 13.8058 18.8533 14.1798C18.8533 14.766 20.3327 14.766 20.3327 14.1798C20.3327 13.5026 20.3327 12.1989 20.3327 12.1989L20.7626 11.8451L22.6619 14.4628C23.0418 14.9782 24.2513 14.0484 23.8715 13.533L21.8522 10.8446L21.8622 10.8547Z" fill="#F9E000"/>
</svg>
